<svg xmlns:dc="http://purl.org/dc/elements/1.1/" xmlns:cc="http://creativecommons.org/ns#" xmlns:rdf="http://www.w3.org/1999/02/22-rdf-syntax-ns#" xmlns:svg="http://www.w3.org/2000/svg" xmlns="http://www.w3.org/2000/svg" xml:space="preserve" id="svg2" version="1.1" viewBox="0 0 1000 666.68"><metadata id="metadata8"><rdf:RDF><cc:Work rdf:about=""><dc:format>image/svg+xml</dc:format><dc:type rdf:resource="http://purl.org/dc/dcmitype/StillImage"/></cc:Work></rdf:RDF></metadata><defs id="defs6"><clipPath id="clipPath24" clipPathUnits="userSpaceOnUse"><path id="path22" d="M 0,500 H 750 V 0 H 0 Z"/></clipPath><clipPath id="clipPath388" clipPathUnits="userSpaceOnUse"><path id="path386" d="m 94.748,330.512 c 0,-42.319 34.306,-76.625 76.625,-76.625 v 0 c 42.318,0 76.624,34.306 76.624,76.625 v 0 c 0,42.317 -34.306,76.623 -76.624,76.623 v 0 c -42.319,0 -76.625,-34.306 -76.625,-76.623"/></clipPath><clipPath id="clipPath492" clipPathUnits="userSpaceOnUse"><path id="path490" d="M 0,500 H 750 V 0 H 0 Z"/></clipPath><clipPath id="clipPath728" clipPathUnits="userSpaceOnUse"><path id="path726" d="M 177.532,310.89 H 405.111 V 417.136 H 177.532 Z"/></clipPath><clipPath id="clipPath828" clipPathUnits="userSpaceOnUse"><path id="path826" d="M 0,500 H 750 V 0 H 0 Z"/></clipPath></defs><g transform="matrix(1.3333333,0,0,-1.3333333,0,666.66667)" id="g10"><path id="path12" style="fill:#232323;fill-opacity:1;fill-rule:nonzero;stroke:none" d="M 0,0 H 750 V 500 H 0 Z"/><g transform="translate(526.931,166.0332)" id="g14"><path id="path16" style="fill:#161616;fill-opacity:1;fill-rule:nonzero;stroke:none" d="M 0,0 -129.692,129.692 0,259.384 129.692,129.692 Z"/></g><g id="g18"><g clip-path="url(#clipPath24)" id="g20"><g transform="translate(235.807,128.0215)" id="g26"><path id="path28" style="fill:#161616;fill-opacity:1;fill-rule:nonzero;stroke:none" d="m 0,0 c 0,-42.18 -34.193,-76.373 -76.373,-76.373 -42.18,0 -76.373,34.193 -76.373,76.373 0,42.18 34.193,76.373 76.373,76.373 C -34.193,76.373 0,42.18 0,0"/></g><g transform="translate(461.266,288.8955)" id="g30"><path id="path32" style="fill:#00f28b;fill-opacity:1;fill-rule:nonzero;stroke:none" d="m 0,0 c 0,-38.09 -30.878,-68.969 -68.969,-68.969 -38.09,0 -68.968,30.879 -68.968,68.969 0,38.09 30.878,68.969 68.968,68.969 C -30.878,68.969 0,38.09 0,0"/></g><g transform="translate(502.0053,347.5273)" id="g34"><path id="path36" style="fill:none;stroke:#ffffff;stroke-width:1;stroke-linecap:butt;stroke-linejoin:miter;stroke-miterlimit:10;stroke-dasharray:none;stroke-opacity:1" d="M 0,0 V -48.806"/></g><g transform="translate(513.4525,347.5273)" id="g38"><path id="path40" style="fill:none;stroke:#ffffff;stroke-width:1.68799996;stroke-linecap:butt;stroke-linejoin:miter;stroke-miterlimit:10;stroke-dasharray:none;stroke-opacity:1" d="M 0,0 V -48.806"/></g><g transform="translate(524.8988,347.5273)" id="g42"><path id="path44" style="fill:none;stroke:#ffffff;stroke-width:2.375;stroke-linecap:butt;stroke-linejoin:miter;stroke-miterlimit:10;stroke-dasharray:none;stroke-opacity:1" d="M 0,0 V -48.806"/></g><g transform="translate(536.3461,347.5273)" id="g46"><path id="path48" style="fill:none;stroke:#ffffff;stroke-width:3.06299996;stroke-linecap:butt;stroke-linejoin:miter;stroke-miterlimit:10;stroke-dasharray:none;stroke-opacity:1" d="M 0,0 V -48.806"/></g><g transform="translate(547.7924,347.5273)" id="g50"><path id="path52" style="fill:none;stroke:#ffffff;stroke-width:3.75;stroke-linecap:butt;stroke-linejoin:miter;stroke-miterlimit:10;stroke-dasharray:none;stroke-opacity:1" d="M 0,0 V -48.806"/></g><g transform="translate(559.2396,347.5273)" id="g54"><path id="path56" style="fill:none;stroke:#ffffff;stroke-width:4.4380002;stroke-linecap:butt;stroke-linejoin:miter;stroke-miterlimit:10;stroke-dasharray:none;stroke-opacity:1" d="M 0,0 V -48.806"/></g><g transform="translate(570.6869,347.5273)" id="g58"><path id="path60" style="fill:none;stroke:#ffffff;stroke-width:5.125;stroke-linecap:butt;stroke-linejoin:miter;stroke-miterlimit:10;stroke-dasharray:none;stroke-opacity:1" d="M 0,0 V -48.806"/></g><g transform="translate(582.1332,347.5273)" id="g62"><path id="path64" style="fill:none;stroke:#ffffff;stroke-width:5.8130002;stroke-linecap:butt;stroke-linejoin:miter;stroke-miterlimit:10;stroke-dasharray:none;stroke-opacity:1" d="M 0,0 V -48.806"/></g><g transform="translate(593.5804,347.5273)" id="g66"><path id="path68" style="fill:none;stroke:#ffffff;stroke-width:6.5;stroke-linecap:butt;stroke-linejoin:miter;stroke-miterlimit:10;stroke-dasharray:none;stroke-opacity:1" d="M 0,0 V -48.806"/></g><g transform="translate(605.0267,347.5273)" id="g70"><path id="path72" style="fill:none;stroke:#ffffff;stroke-width:7.1880002;stroke-linecap:butt;stroke-linejoin:miter;stroke-miterlimit:10;stroke-dasharray:none;stroke-opacity:1" d="M 0,0 V -48.806"/></g><g transform="translate(616.474,347.5273)" id="g74"><path id="path76" style="fill:none;stroke:#ffffff;stroke-width:7.875;stroke-linecap:butt;stroke-linejoin:miter;stroke-miterlimit:10;stroke-dasharray:none;stroke-opacity:1" d="M 0,0 V -48.806"/></g><g transform="translate(627.9213,347.5273)" id="g78"><path id="path80" style="fill:none;stroke:#ffffff;stroke-width:8.56299973;stroke-linecap:butt;stroke-linejoin:miter;stroke-miterlimit:10;stroke-dasharray:none;stroke-opacity:1" d="M 0,0 V -48.806"/></g><g transform="translate(639.3676,347.5273)" id="g82"><path id="path84" style="fill:none;stroke:#ffffff;stroke-width:9.25;stroke-linecap:butt;stroke-linejoin:miter;stroke-miterlimit:10;stroke-dasharray:none;stroke-opacity:1" d="M 0,0 V -48.806"/></g><g transform="translate(650.8148,347.5273)" id="g86"><path id="path88" style="fill:none;stroke:#ffffff;stroke-width:9.93799973;stroke-linecap:butt;stroke-linejoin:miter;stroke-miterlimit:10;stroke-dasharray:none;stroke-opacity:1" d="M 0,0 V -48.806"/></g><g transform="translate(662.2621,347.5273)" id="g90"><path id="path92" style="fill:none;stroke:#ffffff;stroke-width:10.625;stroke-linecap:butt;stroke-linejoin:miter;stroke-miterlimit:10;stroke-dasharray:none;stroke-opacity:1" d="M 0,0 V -48.806"/></g><g transform="translate(673.7084,347.5273)" id="g94"><path id="path96" style="fill:none;stroke:#ffffff;stroke-width:11.31299973;stroke-linecap:butt;stroke-linejoin:miter;stroke-miterlimit:10;stroke-dasharray:none;stroke-opacity:1" d="M 0,0 V -48.806"/></g><g transform="translate(685.1556,347.5273)" id="g98"><path id="path100" style="fill:none;stroke:#ffffff;stroke-width:12;stroke-linecap:butt;stroke-linejoin:miter;stroke-miterlimit:10;stroke-dasharray:none;stroke-opacity:1" d="M 0,0 V -48.806"/></g><g transform="translate(685.0873,265.2725)" id="g102"><path id="path104" style="fill:none;stroke:#ffffff;stroke-width:0.25;stroke-linecap:butt;stroke-linejoin:miter;stroke-miterlimit:10;stroke-dasharray:none;stroke-opacity:1" d="m 0,0 c -38.818,2.5 -79.695,24.678 -118.646,16.616 -31.161,-6.449 -57.367,-30.534 -89.998,-31.028 -34.464,-0.521 -64.551,22.372 -98.422,25.655 -38.16,3.697 -72.67,-22.21 -110.149,-25.688"/></g><g transform="translate(273.1273,242.2275)" id="g106"><path id="path108" style="fill:none;stroke:#ffffff;stroke-width:0.25;stroke-linecap:butt;stroke-linejoin:miter;stroke-miterlimit:10;stroke-dasharray:none;stroke-opacity:1" d="m 0,0 c 36.247,4.145 70.788,28.896 107.756,25.439 32.719,-3.059 62.315,-23.918 95.56,-23.395 31.771,0.5 59.434,21.147 90.1,26.97 38.769,7.361 79.854,-11.974 118.544,-14.602"/></g><g transform="translate(278.0336,237.0273)" id="g110"><path id="path112" style="fill:none;stroke:#ffffff;stroke-width:0.25;stroke-linecap:butt;stroke-linejoin:miter;stroke-miterlimit:10;stroke-dasharray:none;stroke-opacity:1" d="m 0,0 c 35.969,3.528 69.833,23.058 106.191,21.867 31.692,-1.039 60.31,-18.331 92.216,-18.268 31.945,0.062 61.512,15.157 93.013,18.489 38.368,4.058 77.335,-9.291 115.634,-11.112"/></g><g transform="translate(282.1186,233.2676)" id="g114"><path id="path116" style="fill:none;stroke:#ffffff;stroke-width:0.25;stroke-linecap:butt;stroke-linejoin:miter;stroke-miterlimit:10;stroke-dasharray:none;stroke-opacity:1" d="m 0,0 c 36.985,2.361 72.378,17.557 109.567,16.789 28.848,-0.596 55.875,-12.176 84.842,-12.569 31.307,-0.425 61.982,7.076 93.191,8.169 38.574,1.35 76.841,-5.611 115.369,-6.29"/></g><g transform="translate(284.9096,228.9854)" id="g118"><path id="path120" style="fill:none;stroke:#ffffff;stroke-width:0.25;stroke-linecap:butt;stroke-linejoin:miter;stroke-miterlimit:10;stroke-dasharray:none;stroke-opacity:1" d="M 0,0 C 38.003,1.398 74.938,12.632 113.036,12.241 139.482,11.97 165.179,5.116 191.672,4.497 261.02,2.878 330.831,1.482 400.178,1.744"/></g><g transform="translate(285.933,222.2187)" id="g122"><path id="path124" style="fill:none;stroke:#ffffff;stroke-width:0.25;stroke-linecap:butt;stroke-linejoin:miter;stroke-miterlimit:10;stroke-dasharray:none;stroke-opacity:1" d="m 0,0 c 38.416,1.387 76.236,10.568 114.72,10.2 25.402,-0.244 50.462,-4.95 75.884,-5.507 69.625,-1.524 138.814,-4.828 208.55,-4.815"/></g><g transform="translate(284.0307,213.5693)" id="g126"><path id="path128" style="fill:none;stroke:#ffffff;stroke-width:0.25;stroke-linecap:butt;stroke-linejoin:miter;stroke-miterlimit:10;stroke-dasharray:none;stroke-opacity:1" d="m 0,0 c 37.684,1.263 74.359,12.137 112.132,11.683 27.332,-0.329 53.212,-9.771 80.637,-10.385 68.292,-1.531 137.255,-2.463 205.546,-2.172"/></g><g transform="translate(279.5297,204.9053)" id="g130"><path id="path132" style="fill:none;stroke:#ffffff;stroke-width:0.25;stroke-linecap:butt;stroke-linejoin:miter;stroke-miterlimit:10;stroke-dasharray:none;stroke-opacity:1" d="m 0,0 c 36.627,1.889 72.522,17.466 109.295,14.547 30.581,-2.428 57.237,-19.982 88.247,-20.773 30.378,-0.775 59.787,8.93 89.936,10.88 36.508,2.363 72.465,-6.474 108.873,-7.303"/></g><g transform="translate(274.1664,196.2354)" id="g134"><path id="path136" style="fill:none;stroke:#ffffff;stroke-width:0.25;stroke-linecap:butt;stroke-linejoin:miter;stroke-miterlimit:10;stroke-dasharray:none;stroke-opacity:1" d="m 0,0 c 34.406,2.634 68.189,22.478 102.813,17.925 35.213,-4.631 64.524,-32.899 100.619,-33.29 31.077,-0.336 59.292,18.336 89.449,23.3 33.986,5.594 67.404,-10.593 101.133,-12.698"/></g><g transform="translate(269.6772,187.5713)" id="g138"><path id="path140" style="fill:none;stroke:#ffffff;stroke-width:0.25;stroke-linecap:butt;stroke-linejoin:miter;stroke-miterlimit:10;stroke-dasharray:none;stroke-opacity:1" d="m 0,0 c 32.849,3.149 64.082,26.295 97.314,20.825 38.911,-6.404 70.87,-43.671 111.047,-43.842 32.04,-0.135 58.832,26.477 89.037,33.823 32.436,7.888 62.829,-14.368 94.657,-17.338"/></g><g transform="translate(267.7992,178.9219)" id="g142"><path id="path144" style="fill:none;stroke:#ffffff;stroke-width:0.25;stroke-linecap:butt;stroke-linejoin:miter;stroke-miterlimit:10;stroke-dasharray:none;stroke-opacity:1" d="m 0,0 c 32.524,3.02 61.687,27.788 94.749,22.304 40.879,-6.782 73.385,-48.479 115.675,-48.526 33.396,-0.036 57.808,30.67 88.847,38.679 32.742,8.448 60.245,-16.928 91.955,-19.732"/></g><g transform="translate(267.7973,170.2871)" id="g146"><path id="path148" style="fill:none;stroke:#ffffff;stroke-width:0.25;stroke-linecap:butt;stroke-linejoin:miter;stroke-miterlimit:10;stroke-dasharray:none;stroke-opacity:1" d="m 0,0 c 32.739,3.063 62.666,27.507 95.895,22.003 40.313,-6.679 72.656,-47.191 114.346,-47.242 32.709,-0.04 58.399,28.462 89.037,36.126 32.225,8.061 63.007,-14.451 94.657,-17.406"/></g><g transform="translate(267.7982,161.6523)" id="g150"><path id="path152" style="fill:none;stroke:#ffffff;stroke-width:0.25;stroke-linecap:butt;stroke-linejoin:miter;stroke-miterlimit:10;stroke-dasharray:none;stroke-opacity:1" d="m 0,0 c 32.694,2.833 62.234,25.145 95.382,21.897 41.236,-4.038 72.376,-43.83 114.34,-44.459 33.337,-0.499 60.46,25.466 92.562,30.865 32.601,5.483 65.66,-11.043 98.098,-13.023"/></g><g transform="translate(267.7992,153.0166)" id="g154"><path id="path156" style="fill:none;stroke:#ffffff;stroke-width:0.25;stroke-linecap:butt;stroke-linejoin:miter;stroke-miterlimit:10;stroke-dasharray:none;stroke-opacity:1" d="m 0,0 c 33.588,2.708 64.467,24.268 98.452,21.22 39.93,-3.582 70.217,-39.944 110.789,-41.098 32.683,-0.93 61.135,20.362 93.014,24.301 34.919,4.313 70.861,-6.228 105.826,-6.994"/></g><g transform="translate(267.8002,144.3818)" id="g158"><path id="path160" style="fill:none;stroke:#ffffff;stroke-width:0.25;stroke-linecap:butt;stroke-linejoin:miter;stroke-miterlimit:10;stroke-dasharray:none;stroke-opacity:1" d="m 0,0 c 34.788,2.589 68.722,25.408 103.972,20.609 37.379,-5.089 66.499,-36.84 104.858,-38.357 31.125,-1.23 60.188,14.828 90.703,18.434 37.74,4.459 77.097,-1.628 115.013,-1.454"/></g><g transform="translate(267.7992,135.7471)" id="g162"><path id="path164" style="fill:none;stroke:#ffffff;stroke-width:0.25;stroke-linecap:butt;stroke-linejoin:miter;stroke-miterlimit:10;stroke-dasharray:none;stroke-opacity:1" d="m 0,0 c 35.047,2.634 69.675,25.131 105.149,20.285 36.775,-5.022 65.769,-35.563 103.496,-37.038 30.77,-1.203 60.56,12.648 90.892,15.881 38.559,4.108 79.008,0.864 117.751,0.871"/></g><g transform="translate(268.2514,126.8564)" id="g166"><path id="path168" style="fill:none;stroke:#ffffff;stroke-width:0.25;stroke-linecap:butt;stroke-linejoin:miter;stroke-miterlimit:10;stroke-dasharray:none;stroke-opacity:1" d="m 0,0 c 35.166,2.229 68.55,25.208 104.167,20.249 36.553,-5.088 66.616,-33.537 104.025,-35.031 30.891,-1.234 60.835,12.772 91.274,16.101 38.889,4.253 78.388,-3.429 117.37,-3.093"/></g><g transform="translate(269.7406,117.2656)" id="g170"><path id="path172" style="fill:none;stroke:#ffffff;stroke-width:0.25;stroke-linecap:butt;stroke-linejoin:miter;stroke-miterlimit:10;stroke-dasharray:none;stroke-opacity:1" d="m 0,0 c 34.974,1.981 65.929,25.063 101.479,20.815 36.506,-4.361 68.046,-29.502 105.224,-30.507 31.306,-0.847 61.272,13.196 92.112,16.595 39.402,4.342 77.361,-11.189 116.532,-12.6"/></g><g transform="translate(272.4623,106.6934)" id="g174"><path id="path176" style="fill:none;stroke:#ffffff;stroke-width:0.25;stroke-linecap:butt;stroke-linejoin:miter;stroke-miterlimit:10;stroke-dasharray:none;stroke-opacity:1" d="m 0,0 c 34.337,2.035 62.22,25.538 97.334,22.331 36.573,-3.342 69.597,-24.781 106.647,-25.134 31.79,-0.302 61.785,13.724 93.107,17.179 40.518,4.471 75.923,-20.038 115.538,-23.977"/></g><g transform="translate(276.6107,94.8594)" id="g178"><path id="path180" style="fill:none;stroke:#ffffff;stroke-width:0.25;stroke-linecap:butt;stroke-linejoin:miter;stroke-miterlimit:10;stroke-dasharray:none;stroke-opacity:1" d="m 0,0 c 33.353,2.554 57.548,27.494 91.978,25.139 36.66,-2.508 70.866,-20.702 107.855,-20.575 32.166,0.111 62.252,14.157 93.951,17.676 42.056,4.67 74.35,-27.679 114.694,-33.56"/></g><g transform="translate(282.3813,81.4834)" id="g182"><path id="path184" style="fill:none;stroke:#ffffff;stroke-width:0.25;stroke-linecap:butt;stroke-linejoin:miter;stroke-miterlimit:10;stroke-dasharray:none;stroke-opacity:1" d="m 0,0 c 31.117,3.687 50.542,30.188 82.704,29.606 37.78,-0.684 73.403,-18.46 111.325,-18.376 33.313,0.077 64.247,15.124 97.164,18.188 41.831,3.895 71.429,-32.433 111.513,-38.106"/></g><g transform="translate(267.8725,250.8276)" id="g186"><path id="path188" style="fill:none;stroke:#ffffff;stroke-width:0.25;stroke-linecap:butt;stroke-linejoin:miter;stroke-miterlimit:10;stroke-dasharray:none;stroke-opacity:1" d="m 0,0 c 7.323,-10.919 18.31,-17.95 17.762,-31.85 -0.55,-13.941 -15.248,-25.877 -17.835,-40.056 -5.88,-32.219 2.449,-68.163 14.582,-97.438"/></g><g transform="translate(276.519,251.3604)" id="g190"><path id="path192" style="fill:none;stroke:#ffffff;stroke-width:0.25;stroke-linecap:butt;stroke-linejoin:miter;stroke-miterlimit:10;stroke-dasharray:none;stroke-opacity:1" d="M 0,0 C 7.106,-10.914 18.567,-18.384 18.009,-32.221 17.445,-46.188 2.239,-57.708 -0.388,-71.963 -6.234,-103.69 2.416,-140.364 14.02,-169.276"/></g><g transform="translate(285.099,252.7935)" id="g194"><path id="path196" style="fill:none;stroke:#ffffff;stroke-width:0.25;stroke-linecap:butt;stroke-linejoin:miter;stroke-miterlimit:10;stroke-dasharray:none;stroke-opacity:1" d="m 0,0 c 6.892,-10.955 19.203,-19.247 18.463,-33.1 -0.75,-14.042 -16.951,-24.612 -19.715,-39.007 -5.869,-30.565 3.323,-68.987 13.923,-96.966"/></g><g transform="translate(293.6244,254.9468)" id="g198"><path id="path200" style="fill:none;stroke:#ffffff;stroke-width:0.25;stroke-linecap:butt;stroke-linejoin:miter;stroke-miterlimit:10;stroke-dasharray:none;stroke-opacity:1" d="m 0,0 c 6.993,-11.292 22.554,-22.245 18.327,-37.141 -3.901,-13.753 -17.89,-20.45 -20.545,-35.167 -5.39,-29.887 3.32,-68.72 12.857,-96.454"/></g><g transform="translate(302.1098,257.6396)" id="g202"><path id="path204" style="fill:none;stroke:#ffffff;stroke-width:0.25;stroke-linecap:butt;stroke-linejoin:miter;stroke-miterlimit:10;stroke-dasharray:none;stroke-opacity:1" d="M 0,0 C 6.709,-11.254 23.83,-23.921 18.969,-38.677 14.426,-52.466 -0.824,-57.6 -3.754,-72.619 c -2.324,-11.921 1.694,-25.773 2.281,-37.777 1.006,-20.554 3.516,-38.138 9.566,-57.974"/></g><g transform="translate(310.5688,260.6914)" id="g206"><path id="path208" style="fill:none;stroke:#ffffff;stroke-width:0.25;stroke-linecap:butt;stroke-linejoin:miter;stroke-miterlimit:10;stroke-dasharray:none;stroke-opacity:1" d="M 0,0 C 6.438,-11.226 25.241,-25.823 19.671,-40.404 14.392,-54.222 -2.223,-57.602 -5.48,-72.979 c -2.529,-11.937 2.523,-26.004 3.312,-38 1.308,-19.902 2.31,-37.424 7.373,-56.946"/></g><g transform="translate(319.0141,263.9214)" id="g210"><path id="path212" style="fill:none;stroke:#ffffff;stroke-width:0.25;stroke-linecap:butt;stroke-linejoin:miter;stroke-miterlimit:10;stroke-dasharray:none;stroke-opacity:1" d="m 0,0 c 6.187,-11.209 26.698,-27.857 20.404,-42.226 -6.058,-13.83 -24.089,-15.37 -27.706,-31.135 -2.748,-11.98 3.425,-26.228 4.392,-38.234 1.544,-19.186 1.083,-36.777 5.057,-55.858"/></g><g transform="translate(327.4594,267.1494)" id="g214"><path id="path216" style="fill:none;stroke:#ffffff;stroke-width:0.25;stroke-linecap:butt;stroke-linejoin:miter;stroke-miterlimit:10;stroke-dasharray:none;stroke-opacity:1" d="M 0,0 C 5.958,-11.208 28.115,-29.919 21.138,-44.047 14.31,-57.871 -5.144,-57.582 -9.121,-73.743 c -2.964,-12.036 4.332,-26.445 5.47,-38.468 1.747,-18.464 -0.101,-36.216 2.743,-54.769"/></g><g transform="translate(335.9193,270.1948)" id="g218"><path id="path220" style="fill:none;stroke:#ffffff;stroke-width:0.25;stroke-linecap:butt;stroke-linejoin:miter;stroke-miterlimit:10;stroke-dasharray:none;stroke-opacity:1" d="M 0,0 C 5.751,-11.227 29.416,-31.897 21.838,-45.77 14.299,-59.573 -6.53,-57.556 -10.846,-74.1 c -3.157,-12.105 5.201,-26.648 6.499,-38.693 1.918,-17.805 -1.179,-35.749 0.557,-53.743"/></g><g transform="translate(344.4057,272.8774)" id="g222"><path id="path224" style="fill:none;stroke:#ffffff;stroke-width:0.25;stroke-linecap:butt;stroke-linejoin:miter;stroke-miterlimit:10;stroke-dasharray:none;stroke-opacity:1" d="m 0,0 c 5.564,-11.268 30.538,-33.676 22.478,-47.3 -8.154,-13.781 -30.251,-10.21 -34.854,-27.11 -3.317,-12.18 5.985,-26.824 7.428,-38.899 2.063,-17.274 -2.088,-35.367 -1.379,-52.836"/></g><g transform="translate(352.932,275.0166)" id="g226"><path id="path228" style="fill:none;stroke:#ffffff;stroke-width:0.25;stroke-linecap:butt;stroke-linejoin:miter;stroke-miterlimit:10;stroke-dasharray:none;stroke-opacity:1" d="m 0,0 c 5.392,-11.327 31.425,-35.144 23.023,-48.54 -8.637,-13.775 -31.816,-8.889 -36.64,-26.107 -3.433,-12.256 6.638,-26.974 8.208,-39.078 2.192,-16.913 -2.751,-35.069 -2.937,-52.112"/></g><g transform="translate(361.5131,276.4321)" id="g230"><path id="path232" style="fill:none;stroke:#ffffff;stroke-width:0.25;stroke-linecap:butt;stroke-linejoin:miter;stroke-miterlimit:10;stroke-dasharray:none;stroke-opacity:1" d="m 0,0 c 5.223,-11.401 32.025,-36.186 23.444,-49.394 -8.971,-13.811 -32.953,-7.895 -37.918,-25.395 -3.496,-12.324 7.114,-27.09 8.788,-39.22 2.31,-16.734 -3.087,-34.866 -3.99,-51.627"/></g><g transform="translate(370.1606,276.9424)" id="g234"><path id="path236" style="fill:none;stroke:#ffffff;stroke-width:0.25;stroke-linecap:butt;stroke-linejoin:miter;stroke-miterlimit:10;stroke-dasharray:none;stroke-opacity:1" d="m 0,0 c 5.052,-11.483 32.292,-36.688 23.708,-49.762 -9.128,-13.904 -33.539,-7.313 -38.554,-25.049 -3.5,-12.373 7.36,-27.172 9.116,-39.314 2.417,-16.726 -3.025,-34.788 -4.415,-51.446"/></g><g transform="translate(378.8979,276.4189)" id="g238"><path id="path240" style="fill:none;stroke:#ffffff;stroke-width:0.25;stroke-linecap:butt;stroke-linejoin:miter;stroke-miterlimit:10;stroke-dasharray:none;stroke-opacity:1" d="m 0,0 c 5.116,-11.62 31.319,-35.91 22.992,-49.154 -8.683,-13.811 -32.524,-8.972 -37.37,-26.245 -3.438,-12.254 6.953,-26.847 8.691,-38.9 2.396,-16.638 -2.876,-34.549 -4.259,-51.12"/></g><g transform="translate(387.7006,274.9941)" id="g242"><path id="path244" style="fill:none;stroke:#ffffff;stroke-width:0.25;stroke-linecap:butt;stroke-linejoin:miter;stroke-miterlimit:10;stroke-dasharray:none;stroke-opacity:1" d="m 0,0 c 5.132,-12.013 29.358,-34.358 21.593,-48.055 -7.913,-13.954 -30.599,-11.746 -35.005,-28.638 -3.182,-12.199 6.347,-26.23 8.009,-38.241 2.261,-16.348 -2.674,-33.801 -3.992,-50.085"/></g><g transform="translate(396.5551,272.8486)" id="g246"><path id="path248" style="fill:none;stroke:#ffffff;stroke-width:0.25;stroke-linecap:butt;stroke-linejoin:miter;stroke-miterlimit:10;stroke-dasharray:none;stroke-opacity:1" d="m 0,0 c 5.076,-12.619 26.538,-32.231 19.646,-46.561 -6.873,-14.289 -27.927,-15.382 -31.694,-31.99 -2.758,-12.161 5.59,-25.406 7.123,-37.387 2.032,-15.89 -2.432,-32.652 -3.635,-48.482"/></g><g transform="translate(405.4496,270.1621)" id="g250"><path id="path252" style="fill:none;stroke:#ffffff;stroke-width:0.25;stroke-linecap:butt;stroke-linejoin:miter;stroke-miterlimit:10;stroke-dasharray:none;stroke-opacity:1" d="m 0,0 c 4.888,-13.343 23.006,-29.778 17.289,-44.771 -5.641,-14.794 -24.654,-19.587 -27.674,-36.059 -2.225,-12.138 4.856,-24.414 6.082,-36.39 1.576,-15.373 -2.155,-31.138 -3.211,-46.452"/></g><g transform="translate(414.3695,267.1157)" id="g254"><path id="path256" style="fill:none;stroke:#ffffff;stroke-width:0.25;stroke-linecap:butt;stroke-linejoin:miter;stroke-miterlimit:10;stroke-dasharray:none;stroke-opacity:1" d="M 0,0 C 5.365,-15.917 20.334,-28.665 13.021,-46.151 7.355,-59.704 -6.826,-68.108 -9.238,-83.409 c -1.639,-10.396 4.051,-21.905 5.267,-32.236 1.852,-15.73 -1.367,-31.491 -2.354,-47.18"/></g><g transform="translate(423.3031,263.8896)" id="g258"><path id="path260" style="fill:none;stroke:#ffffff;stroke-width:0.25;stroke-linecap:butt;stroke-linejoin:miter;stroke-miterlimit:10;stroke-dasharray:none;stroke-opacity:1" d="M 0,0 C 4.56,-16.208 15.937,-26.789 10.616,-44.433 6.16,-59.21 -5.402,-70.48 -7.048,-86.34 c -1.065,-10.267 3.02,-20.786 3.948,-30.963 1.362,-14.91 -1.191,-29.753 -1.968,-44.625"/></g><g transform="translate(432.2367,260.6641)" id="g262"><path id="path264" style="fill:none;stroke:#ffffff;stroke-width:0.25;stroke-linecap:butt;stroke-linejoin:miter;stroke-miterlimit:10;stroke-dasharray:none;stroke-opacity:1" d="M 0,0 C 3.489,-15.978 11.663,-25.541 8.211,-42.714 4.979,-58.784 -3.854,-72.62 -4.858,-89.271 c -1.418,-23.489 2.007,-47.93 1.047,-71.759"/></g><g transform="translate(441.1566,257.6196)" id="g266"><path id="path268" style="fill:none;stroke:#ffffff;stroke-width:0.25;stroke-linecap:butt;stroke-linejoin:miter;stroke-miterlimit:10;stroke-dasharray:none;stroke-opacity:1" d="m 0,0 c 0.04,-15.332 7.884,-24.639 5.921,-41.071 -2.072,-17.344 -8.18,-33.371 -8.713,-50.965 -0.682,-22.487 0.166,-45.619 0.169,-68.147"/></g><g transform="translate(450.0502,254.937)" id="g270"><path id="path272" style="fill:none;stroke:#ffffff;stroke-width:0.25;stroke-linecap:butt;stroke-linejoin:miter;stroke-miterlimit:10;stroke-dasharray:none;stroke-opacity:1" d="m 0,0 c -0.653,-13.474 4.663,-25.498 3.861,-39.582 -1.052,-18.481 -4.584,-36.337 -4.833,-54.89 -0.29,-21.602 -0.767,-43.379 -0.606,-64.965"/></g><g transform="translate(458.9047,252.7959)" id="g274"><path id="path276" style="fill:none;stroke:#ffffff;stroke-width:0.25;stroke-linecap:butt;stroke-linejoin:miter;stroke-miterlimit:10;stroke-dasharray:none;stroke-opacity:1" d="M 0,0 C -0.892,-12.419 2.31,-25.748 2.146,-38.321 1.894,-57.714 0.623,-77.017 0.479,-96.415 c -0.155,-20.804 -1.448,-41.617 -1.224,-62.424"/></g><g transform="translate(467.7065,251.377)" id="g278"><path id="path280" style="fill:none;stroke:#ffffff;stroke-width:0.25;stroke-linecap:butt;stroke-linejoin:miter;stroke-miterlimit:10;stroke-dasharray:none;stroke-opacity:1" d="M 0,0 C -2.866,-52.032 -0.632,-106.136 -0.195,-158.439"/></g><g transform="translate(476.4438,250.8608)" id="g282"><path id="path284" style="fill:none;stroke:#ffffff;stroke-width:0.25;stroke-linecap:butt;stroke-linejoin:miter;stroke-miterlimit:10;stroke-dasharray:none;stroke-opacity:1" d="M 0,0 V -158.29"/></g><g transform="translate(485.1176,251.5107)" id="g286"><path id="path288" style="fill:none;stroke:#ffffff;stroke-width:0.25;stroke-linecap:butt;stroke-linejoin:miter;stroke-miterlimit:10;stroke-dasharray:none;stroke-opacity:1" d="M 0,0 C -0.098,-52.922 0.443,-105.682 0.092,-158.568"/></g><g transform="translate(493.7602,253.2935)" id="g290"><path id="path292" style="fill:none;stroke:#ffffff;stroke-width:0.25;stroke-linecap:butt;stroke-linejoin:miter;stroke-miterlimit:10;stroke-dasharray:none;stroke-opacity:1" d="M 0,0 C -0.111,-53.167 0.92,-106.188 0.341,-159.324"/></g><g transform="translate(502.3764,255.9814)" id="g294"><path id="path296" style="fill:none;stroke:#ffffff;stroke-width:0.25;stroke-linecap:butt;stroke-linejoin:miter;stroke-miterlimit:10;stroke-dasharray:none;stroke-opacity:1" d="M 0,0 C -0.053,-53.525 1.435,-106.974 0.717,-160.461"/></g><g transform="translate(510.9721,259.3491)" id="g298"><path id="path300" style="fill:none;stroke:#ffffff;stroke-width:0.25;stroke-linecap:butt;stroke-linejoin:miter;stroke-miterlimit:10;stroke-dasharray:none;stroke-opacity:1" d="M 0,0 C 0.271,-53.96 1.986,-107.985 1.189,-161.884"/></g><g transform="translate(519.5551,263.1704)" id="g302"><path id="path304" style="fill:none;stroke:#ffffff;stroke-width:0.25;stroke-linecap:butt;stroke-linejoin:miter;stroke-miterlimit:10;stroke-dasharray:none;stroke-opacity:1" d="M 0,0 C 0.357,-54.426 2.783,-109.175 1.725,-163.499"/></g><g transform="translate(528.1322,267.2183)" id="g306"><path id="path308" style="fill:none;stroke:#ffffff;stroke-width:0.25;stroke-linecap:butt;stroke-linejoin:miter;stroke-miterlimit:10;stroke-dasharray:none;stroke-opacity:1" d="M 0,0 C 0.452,-54.904 3.449,-110.468 2.292,-165.208"/></g><g transform="translate(536.7084,271.2676)" id="g310"><path id="path312" style="fill:none;stroke:#ffffff;stroke-width:0.25;stroke-linecap:butt;stroke-linejoin:miter;stroke-miterlimit:10;stroke-dasharray:none;stroke-opacity:1" d="M 0,0 C 0.534,-55.355 4.132,-111.811 2.859,-166.92"/></g><g transform="translate(545.2914,275.0908)" id="g314"><path id="path316" style="fill:none;stroke:#ffffff;stroke-width:0.25;stroke-linecap:butt;stroke-linejoin:miter;stroke-miterlimit:10;stroke-dasharray:none;stroke-opacity:1" d="m 0,0 c 0.332,-30.908 1.114,-61.823 1.154,-92.734 0.033,-25.101 2.877,-51.021 2.242,-75.8"/></g><g transform="translate(553.8881,278.4629)" id="g318"><path id="path320" style="fill:none;stroke:#ffffff;stroke-width:0.25;stroke-linecap:butt;stroke-linejoin:miter;stroke-miterlimit:10;stroke-dasharray:none;stroke-opacity:1" d="m 0,0 c 0.355,-30.705 1.034,-61.408 1.078,-92.116 0.022,-15.476 -0.352,-30.951 -0.28,-46.426 0.049,-10.621 3.375,-20.959 3.069,-31.418"/></g><g transform="translate(562.5033,281.1572)" id="g322"><path id="path324" style="fill:none;stroke:#ffffff;stroke-width:0.25;stroke-linecap:butt;stroke-linejoin:miter;stroke-miterlimit:10;stroke-dasharray:none;stroke-opacity:1" d="M 0,0 C 0.371,-30.528 0.986,-61.047 1.016,-91.578 1.031,-107.636 0.755,-123.697 0.868,-139.754 0.942,-150.352 4.599,-160.7 4.245,-171.1"/></g><g transform="translate(571.1449,282.9468)" id="g326"><path id="path328" style="fill:none;stroke:#ffffff;stroke-width:0.25;stroke-linecap:butt;stroke-linejoin:miter;stroke-miterlimit:10;stroke-dasharray:none;stroke-opacity:1" d="m 0,0 c 0.378,-30.386 0.96,-60.756 0.971,-91.145 0.005,-16.49 -0.185,-32.985 -0.052,-49.474 0.085,-10.545 3.996,-20.921 3.577,-31.239"/></g><g transform="translate(579.8197,283.6064)" id="g330"><path id="path332" style="fill:none;stroke:#ffffff;stroke-width:0.25;stroke-linecap:butt;stroke-linejoin:miter;stroke-miterlimit:10;stroke-dasharray:none;stroke-opacity:1" d="m 0,0 c 0.376,-30.288 0.946,-60.556 0.946,-90.847 0,-16.732 -0.126,-33.471 -0.001,-50.204 0.078,-10.457 4.147,-20.877 3.643,-31.09"/></g><g transform="translate(588.5316,283.248)" id="g334"><path id="path336" style="fill:none;stroke:#ffffff;stroke-width:0.25;stroke-linecap:butt;stroke-linejoin:miter;stroke-miterlimit:10;stroke-dasharray:none;stroke-opacity:1" d="m 0,0 c 0.378,-30.375 0.466,-60.655 0.311,-91 -0.085,-16.536 0.594,-33.063 0.732,-49.597 0.092,-10.913 3.626,-21.222 3.455,-31.941"/></g><g transform="translate(597.2767,282.2544)" id="g338"><path id="path340" style="fill:none;stroke:#ffffff;stroke-width:0.25;stroke-linecap:butt;stroke-linejoin:miter;stroke-miterlimit:10;stroke-dasharray:none;stroke-opacity:1" d="m 0,0 c 0.367,-30.583 -0.677,-60.789 -1.156,-91.183 -0.437,-27.654 5.145,-55.143 5.406,-82.457"/></g><g transform="translate(606.0472,280.7529)" id="g342"><path id="path344" style="fill:none;stroke:#ffffff;stroke-width:0.25;stroke-linecap:butt;stroke-linejoin:miter;stroke-miterlimit:10;stroke-dasharray:none;stroke-opacity:1" d="m 0,0 c 0.222,-20.317 2.236,-41.319 0.878,-61.59 -0.67,-9.989 -3.818,-19.139 -4.129,-29.199 -0.87,-28.187 6.616,-56.408 7.125,-84.517"/></g><g transform="translate(614.8383,278.8696)" id="g346"><path id="path348" style="fill:none;stroke:#ffffff;stroke-width:0.25;stroke-linecap:butt;stroke-linejoin:miter;stroke-miterlimit:10;stroke-dasharray:none;stroke-opacity:1" d="m 0,0 c 0.191,-19.546 2.628,-40.313 0.705,-59.768 -1.079,-10.926 -6.114,-20.302 -6.732,-31.366 -1.566,-28.041 8.808,-57.774 9.429,-86.261"/></g><g transform="translate(623.642,276.731)" id="g350"><path id="path352" style="fill:none;stroke:#ffffff;stroke-width:0.25;stroke-linecap:butt;stroke-linejoin:miter;stroke-miterlimit:10;stroke-dasharray:none;stroke-opacity:1" d="m 0,0 c 0.157,-18.705 2.859,-39.145 0.493,-57.715 -1.53,-12.006 -9.003,-21.541 -9.673,-33.813 -0.845,-15.505 7.831,-30.79 9.673,-46.061 1.658,-13.748 1.791,-28.326 2.374,-42.177"/></g><g transform="translate(632.4525,274.4648)" id="g354"><path id="path356" style="fill:none;stroke:#ffffff;stroke-width:0.25;stroke-linecap:butt;stroke-linejoin:miter;stroke-miterlimit:10;stroke-dasharray:none;stroke-opacity:1" d="m 0,0 c 0.121,-17.854 2.955,-37.867 0.259,-55.546 -1.995,-13.085 -12.255,-22.89 -12.78,-36.398 -0.583,-14.992 10.404,-28.893 12.78,-43.476 2.433,-14.93 1.588,-31.737 2.041,-46.86"/></g><g transform="translate(641.2631,272.1968)" id="g358"><path id="path360" style="fill:none;stroke:#ffffff;stroke-width:0.25;stroke-linecap:butt;stroke-linejoin:miter;stroke-miterlimit:10;stroke-dasharray:none;stroke-opacity:1" d="m 0,0 c 0.087,-17.032 2.957,-36.551 0.025,-53.375 -2.441,-14.015 -15.732,-24.376 -15.889,-38.987 -0.161,-14.892 13.422,-26.546 15.889,-40.887 2.816,-16.355 1.378,-34.972 1.707,-51.546"/></g><g transform="translate(650.0668,270.0547)" id="g362"><path id="path364" style="fill:none;stroke:#ffffff;stroke-width:0.25;stroke-linecap:butt;stroke-linejoin:miter;stroke-miterlimit:10;stroke-dasharray:none;stroke-opacity:1" d="m 0,0 c 0.054,-16.93 3.16,-37.426 -1.332,-53.832 -3.686,-13.458 -17.137,-24.358 -16.946,-38.754 0.204,-15.462 15.704,-25.875 18.47,-41.002 3.063,-16.737 0.816,-36.555 1.005,-53.585"/></g><g transform="translate(658.8578,268.1641)" id="g366"><path id="path368" style="fill:none;stroke:#ffffff;stroke-width:0.25;stroke-linecap:butt;stroke-linejoin:miter;stroke-miterlimit:10;stroke-dasharray:none;stroke-opacity:1" d="m 0,0 c 0.027,-16.192 3.245,-36.593 -1.664,-52.137 -4.33,-13.709 -19.781,-25.837 -19.278,-40.694 0.523,-15.448 17.757,-23.891 21.025,-38.876 3.807,-17.456 0.546,-39.674 0.641,-57.563"/></g><g transform="translate(667.6293,266.6523)" id="g370"><path id="path372" style="fill:none;stroke:#ffffff;stroke-width:0.25;stroke-linecap:butt;stroke-linejoin:miter;stroke-miterlimit:10;stroke-dasharray:none;stroke-opacity:1" d="m 0,0 c 0.008,-15.795 3.082,-35.673 -1.905,-50.761 -4.632,-14.015 -21.996,-27.003 -21.199,-42.292 0.811,-15.531 19.416,-22.182 23.107,-37.143 4.425,-17.935 0.315,-42.245 0.343,-60.75"/></g><g transform="translate(676.3744,265.6465)" id="g374"><path id="path376" style="fill:none;stroke:#ffffff;stroke-width:0.25;stroke-linecap:butt;stroke-linejoin:miter;stroke-miterlimit:10;stroke-dasharray:none;stroke-opacity:1" d="m 0,0 c -0.002,-15.509 2.97,-35.039 -2.024,-49.811 -4.814,-14.241 -23.583,-27.836 -22.571,-43.433 1.019,-15.669 20.592,-20.898 24.558,-35.938 4.814,-18.253 0.139,-43.96 0.131,-62.88"/></g><g transform="translate(685.0873,265.2725)" id="g378"><path id="path380" style="fill:none;stroke:#ffffff;stroke-width:0.25;stroke-linecap:butt;stroke-linejoin:miter;stroke-miterlimit:10;stroke-dasharray:none;stroke-opacity:1" d="m 0,0 c 0,-15.333 2.941,-34.792 -1.991,-49.394 -4.873,-14.419 -24.356,-28.187 -23.256,-44.003 1.101,-15.832 21.194,-20.174 25.22,-35.386 4.89,-18.484 0.028,-44.523 0.027,-63.694"/></g></g></g><g id="g382"><g clip-path="url(#clipPath388)" id="g384"><g transform="translate(74.5736,378.2173)" id="g390"><path id="path392" style="fill:none;stroke:#ffffff;stroke-width:0.25;stroke-linecap:butt;stroke-linejoin:miter;stroke-miterlimit:10;stroke-dasharray:none;stroke-opacity:1" d="M 0,0 199.096,60.741"/></g><g transform="translate(74.5736,371.5449)" id="g394"><path id="path396" style="fill:none;stroke:#ffffff;stroke-width:0.25;stroke-linecap:butt;stroke-linejoin:miter;stroke-miterlimit:10;stroke-dasharray:none;stroke-opacity:1" d="M 0,0 199.096,60.741"/></g><g transform="translate(74.5736,364.8726)" id="g398"><path id="path400" style="fill:none;stroke:#ffffff;stroke-width:0.25;stroke-linecap:butt;stroke-linejoin:miter;stroke-miterlimit:10;stroke-dasharray:none;stroke-opacity:1" d="M 0,0 199.096,60.741"/></g><g transform="translate(74.5736,358.2002)" id="g402"><path id="path404" style="fill:none;stroke:#ffffff;stroke-width:0.25;stroke-linecap:butt;stroke-linejoin:miter;stroke-miterlimit:10;stroke-dasharray:none;stroke-opacity:1" d="M 0,0 199.096,60.741"/></g><g transform="translate(74.5736,351.5283)" id="g406"><path id="path408" style="fill:none;stroke:#ffffff;stroke-width:0.25;stroke-linecap:butt;stroke-linejoin:miter;stroke-miterlimit:10;stroke-dasharray:none;stroke-opacity:1" d="M 0,0 199.096,60.741"/></g><g transform="translate(74.5736,344.856)" id="g410"><path id="path412" style="fill:none;stroke:#ffffff;stroke-width:0.25;stroke-linecap:butt;stroke-linejoin:miter;stroke-miterlimit:10;stroke-dasharray:none;stroke-opacity:1" d="M 0,0 199.096,60.741"/></g><g transform="translate(74.5736,338.1836)" id="g414"><path id="path416" style="fill:none;stroke:#ffffff;stroke-width:0.25;stroke-linecap:butt;stroke-linejoin:miter;stroke-miterlimit:10;stroke-dasharray:none;stroke-opacity:1" d="M 0,0 199.096,60.741"/></g><g transform="translate(74.5736,331.5112)" id="g418"><path id="path420" style="fill:none;stroke:#ffffff;stroke-width:0.25;stroke-linecap:butt;stroke-linejoin:miter;stroke-miterlimit:10;stroke-dasharray:none;stroke-opacity:1" d="M 0,0 199.096,60.741"/></g><g transform="translate(74.5736,324.8389)" id="g422"><path id="path424" style="fill:none;stroke:#ffffff;stroke-width:0.25;stroke-linecap:butt;stroke-linejoin:miter;stroke-miterlimit:10;stroke-dasharray:none;stroke-opacity:1" d="M 0,0 199.096,60.741"/></g><g transform="translate(74.5736,318.167)" id="g426"><path id="path428" style="fill:none;stroke:#ffffff;stroke-width:0.25;stroke-linecap:butt;stroke-linejoin:miter;stroke-miterlimit:10;stroke-dasharray:none;stroke-opacity:1" d="M 0,0 199.096,60.741"/></g><g transform="translate(74.5736,311.4946)" id="g430"><path id="path432" style="fill:none;stroke:#ffffff;stroke-width:0.25;stroke-linecap:butt;stroke-linejoin:miter;stroke-miterlimit:10;stroke-dasharray:none;stroke-opacity:1" d="M 0,0 199.096,60.741"/></g><g transform="translate(74.5736,304.8223)" id="g434"><path id="path436" style="fill:none;stroke:#ffffff;stroke-width:0.25;stroke-linecap:butt;stroke-linejoin:miter;stroke-miterlimit:10;stroke-dasharray:none;stroke-opacity:1" d="M 0,0 199.096,60.741"/></g><g transform="translate(74.5736,298.1499)" id="g438"><path id="path440" style="fill:none;stroke:#ffffff;stroke-width:0.25;stroke-linecap:butt;stroke-linejoin:miter;stroke-miterlimit:10;stroke-dasharray:none;stroke-opacity:1" d="M 0,0 199.096,60.741"/></g><g transform="translate(74.5736,291.4775)" id="g442"><path id="path444" style="fill:none;stroke:#ffffff;stroke-width:0.25;stroke-linecap:butt;stroke-linejoin:miter;stroke-miterlimit:10;stroke-dasharray:none;stroke-opacity:1" d="M 0,0 199.096,60.741"/></g><g transform="translate(74.5736,284.8052)" id="g446"><path id="path448" style="fill:none;stroke:#ffffff;stroke-width:0.25;stroke-linecap:butt;stroke-linejoin:miter;stroke-miterlimit:10;stroke-dasharray:none;stroke-opacity:1" d="M 0,0 199.096,60.741"/></g><g transform="translate(74.5736,278.1333)" id="g450"><path id="path452" style="fill:none;stroke:#ffffff;stroke-width:0.25;stroke-linecap:butt;stroke-linejoin:miter;stroke-miterlimit:10;stroke-dasharray:none;stroke-opacity:1" d="M 0,0 199.096,60.741"/></g><g transform="translate(74.5736,271.4609)" id="g454"><path id="path456" style="fill:none;stroke:#ffffff;stroke-width:0.25;stroke-linecap:butt;stroke-linejoin:miter;stroke-miterlimit:10;stroke-dasharray:none;stroke-opacity:1" d="M 0,0 199.096,60.741"/></g><g transform="translate(74.5736,264.7886)" id="g458"><path id="path460" style="fill:none;stroke:#ffffff;stroke-width:0.25;stroke-linecap:butt;stroke-linejoin:miter;stroke-miterlimit:10;stroke-dasharray:none;stroke-opacity:1" d="M 0,0 199.096,60.741"/></g><g transform="translate(74.5736,258.1162)" id="g462"><path id="path464" style="fill:none;stroke:#ffffff;stroke-width:0.25;stroke-linecap:butt;stroke-linejoin:miter;stroke-miterlimit:10;stroke-dasharray:none;stroke-opacity:1" d="M 0,0 199.096,60.741"/></g><g transform="translate(74.5736,251.4438)" id="g466"><path id="path468" style="fill:none;stroke:#ffffff;stroke-width:0.25;stroke-linecap:butt;stroke-linejoin:miter;stroke-miterlimit:10;stroke-dasharray:none;stroke-opacity:1" d="M 0,0 199.096,60.741"/></g><g transform="translate(74.5736,244.7715)" id="g470"><path id="path472" style="fill:none;stroke:#ffffff;stroke-width:0.25;stroke-linecap:butt;stroke-linejoin:miter;stroke-miterlimit:10;stroke-dasharray:none;stroke-opacity:1" d="M 0,0 199.096,60.741"/></g><g transform="translate(74.5736,238.0996)" id="g474"><path id="path476" style="fill:none;stroke:#ffffff;stroke-width:0.25;stroke-linecap:butt;stroke-linejoin:miter;stroke-miterlimit:10;stroke-dasharray:none;stroke-opacity:1" d="M 0,0 199.096,60.741"/></g><g transform="translate(74.5736,231.4268)" id="g478"><path id="path480" style="fill:none;stroke:#ffffff;stroke-width:0.25;stroke-linecap:butt;stroke-linejoin:miter;stroke-miterlimit:10;stroke-dasharray:none;stroke-opacity:1" d="M 0,0 199.096,60.741"/></g><g transform="translate(74.5736,224.7549)" id="g482"><path id="path484" style="fill:none;stroke:#ffffff;stroke-width:0.25;stroke-linecap:butt;stroke-linejoin:miter;stroke-miterlimit:10;stroke-dasharray:none;stroke-opacity:1" d="M 0,0 199.096,60.741"/></g></g></g><g id="g486"><g clip-path="url(#clipPath492)" id="g488"><g transform="translate(199.7357,105.7109)" id="g494"><path id="path496" style="fill:none;stroke:#dadada;stroke-width:2;stroke-linecap:butt;stroke-linejoin:miter;stroke-miterlimit:10;stroke-dasharray:none;stroke-opacity:1" d="M 0,0 H 25.949"/></g><g transform="translate(247.9965,153.9717)" id="g498"><path id="path500" style="fill:none;stroke:#dadada;stroke-width:2;stroke-linecap:butt;stroke-linejoin:miter;stroke-miterlimit:10;stroke-dasharray:none;stroke-opacity:1" d="M 0,0 V -25.95"/></g><g transform="translate(247.9965,83.3994)" id="g502"><path id="path504" style="fill:none;stroke:#dadada;stroke-width:2;stroke-linecap:butt;stroke-linejoin:miter;stroke-miterlimit:10;stroke-dasharray:none;stroke-opacity:1" d="M 0,0 V -25.949"/></g><g transform="translate(213.8705,139.8359)" id="g506"><path id="path508" style="fill:none;stroke:#dadada;stroke-width:2;stroke-linecap:butt;stroke-linejoin:miter;stroke-miterlimit:10;stroke-dasharray:none;stroke-opacity:1" d="M 0,0 18.35,-18.349"/></g><g transform="translate(232.2201,89.9346)" id="g510"><path id="path512" style="fill:none;stroke:#dadada;stroke-width:2;stroke-linecap:butt;stroke-linejoin:miter;stroke-miterlimit:10;stroke-dasharray:none;stroke-opacity:1" d="M 0,0 -18.35,-18.35"/></g><g transform="translate(203.225,123.7285)" id="g514"><path id="path516" style="fill:none;stroke:#dadada;stroke-width:2;stroke-linecap:butt;stroke-linejoin:miter;stroke-miterlimit:10;stroke-dasharray:none;stroke-opacity:1" d="M 0,0 24.073,-9.688"/></g><g transform="translate(239.6664,85.0127)" id="g518"><path id="path520" style="fill:none;stroke:#dadada;stroke-width:2;stroke-linecap:butt;stroke-linejoin:miter;stroke-miterlimit:10;stroke-dasharray:none;stroke-opacity:1" d="M 0,0 -9.688,-24.073"/></g><g transform="translate(229.0785,150.1094)" id="g522"><path id="path524" style="fill:none;stroke:#dadada;stroke-width:2;stroke-linecap:butt;stroke-linejoin:miter;stroke-miterlimit:10;stroke-dasharray:none;stroke-opacity:1" d="M 0,0 10.172,-23.873"/></g><g transform="translate(227.4711,96.9648)" id="g526"><path id="path528" style="fill:none;stroke:#dadada;stroke-width:2;stroke-linecap:butt;stroke-linejoin:miter;stroke-miterlimit:10;stroke-dasharray:none;stroke-opacity:1" d="M 0,0 -23.873,-10.172"/></g><g transform="translate(200.7699,115.6494)" id="g530"><path id="path532" style="fill:none;stroke:#dadada;stroke-width:2;stroke-linecap:butt;stroke-linejoin:miter;stroke-miterlimit:10;stroke-dasharray:none;stroke-opacity:1" d="M 0,0 25.394,-5.344"/></g><g transform="translate(243.4017,83.8779)" id="g534"><path id="path536" style="fill:none;stroke:#dadada;stroke-width:2;stroke-linecap:butt;stroke-linejoin:miter;stroke-miterlimit:10;stroke-dasharray:none;stroke-opacity:1" d="M 0,0 -5.344,-25.394"/></g><g transform="translate(221.6303,146.1318)" id="g538"><path id="path540" style="fill:none;stroke:#dadada;stroke-width:2;stroke-linecap:butt;stroke-linejoin:miter;stroke-miterlimit:10;stroke-dasharray:none;stroke-opacity:1" d="M 0,0 14.177,-21.734"/></g><g transform="translate(229.309,93.5215)" id="g542"><path id="path544" style="fill:none;stroke:#dadada;stroke-width:2;stroke-linecap:butt;stroke-linejoin:miter;stroke-miterlimit:10;stroke-dasharray:none;stroke-opacity:1" d="M 0,0 -21.734,-14.178"/></g><g transform="translate(207.8949,132.5615)" id="g546"><path id="path548" style="fill:none;stroke:#dadada;stroke-width:2;stroke-linecap:butt;stroke-linejoin:miter;stroke-miterlimit:10;stroke-dasharray:none;stroke-opacity:1" d="M 0,0 21.562,-14.438"/></g><g transform="translate(235.5824,87.1719)" id="g550"><path id="path552" style="fill:none;stroke:#dadada;stroke-width:2;stroke-linecap:butt;stroke-linejoin:miter;stroke-miterlimit:10;stroke-dasharray:none;stroke-opacity:1" d="M 0,0 -14.438,-21.562"/></g><g transform="translate(238.6273,153.0527)" id="g554"><path id="path556" style="fill:none;stroke:#dadada;stroke-width:2;stroke-linecap:butt;stroke-linejoin:miter;stroke-miterlimit:10;stroke-dasharray:none;stroke-opacity:1" d="M 0,0 5.037,-25.455"/></g><g transform="translate(226.1098,101.3789)" id="g558"><path id="path560" style="fill:none;stroke:#dadada;stroke-width:2;stroke-linecap:butt;stroke-linejoin:miter;stroke-miterlimit:10;stroke-dasharray:none;stroke-opacity:1" d="M 0,0 -25.456,-5.037"/></g><g transform="translate(296.183,105.7109)" id="g562"><path id="path564" style="fill:none;stroke:#dadada;stroke-width:2;stroke-linecap:butt;stroke-linejoin:miter;stroke-miterlimit:10;stroke-dasharray:none;stroke-opacity:1" d="M 0,0 H -25.949"/></g><g transform="translate(282.0473,71.585)" id="g566"><path id="path568" style="fill:none;stroke:#dadada;stroke-width:2;stroke-linecap:butt;stroke-linejoin:miter;stroke-miterlimit:10;stroke-dasharray:none;stroke-opacity:1" d="M 0,0 -18.349,18.35"/></g><g transform="translate(263.6986,121.4873)" id="g570"><path id="path572" style="fill:none;stroke:#dadada;stroke-width:2;stroke-linecap:butt;stroke-linejoin:miter;stroke-miterlimit:10;stroke-dasharray:none;stroke-opacity:1" d="M 0,0 18.349,18.349"/></g><g transform="translate(292.6938,87.6934)" id="g574"><path id="path576" style="fill:none;stroke:#dadada;stroke-width:2;stroke-linecap:butt;stroke-linejoin:miter;stroke-miterlimit:10;stroke-dasharray:none;stroke-opacity:1" d="M 0,0 -24.073,9.688"/></g><g transform="translate(256.2514,126.4092)" id="g578"><path id="path580" style="fill:none;stroke:#dadada;stroke-width:2;stroke-linecap:butt;stroke-linejoin:miter;stroke-miterlimit:10;stroke-dasharray:none;stroke-opacity:1" d="M 0,0 9.688,24.072"/></g><g transform="translate(266.8402,61.3125)" id="g582"><path id="path584" style="fill:none;stroke:#dadada;stroke-width:2;stroke-linecap:butt;stroke-linejoin:miter;stroke-miterlimit:10;stroke-dasharray:none;stroke-opacity:1" d="M 0,0 -10.172,23.872"/></g><g transform="translate(268.4477,114.457)" id="g586"><path id="path588" style="fill:none;stroke:#dadada;stroke-width:2;stroke-linecap:butt;stroke-linejoin:miter;stroke-miterlimit:10;stroke-dasharray:none;stroke-opacity:1" d="M 0,0 23.873,10.172"/></g><g transform="translate(295.1488,95.7725)" id="g590"><path id="path592" style="fill:none;stroke:#dadada;stroke-width:2;stroke-linecap:butt;stroke-linejoin:miter;stroke-miterlimit:10;stroke-dasharray:none;stroke-opacity:1" d="M 0,0 -25.394,5.344"/></g><g transform="translate(252.517,127.5439)" id="g594"><path id="path596" style="fill:none;stroke:#dadada;stroke-width:2;stroke-linecap:butt;stroke-linejoin:miter;stroke-miterlimit:10;stroke-dasharray:none;stroke-opacity:1" d="M 0,0 5.344,25.393"/></g><g transform="translate(274.2885,65.2891)" id="g598"><path id="path600" style="fill:none;stroke:#dadada;stroke-width:2;stroke-linecap:butt;stroke-linejoin:miter;stroke-miterlimit:10;stroke-dasharray:none;stroke-opacity:1" d="M 0,0 -14.177,21.734"/></g><g transform="translate(266.6088,117.9004)" id="g602"><path id="path604" style="fill:none;stroke:#dadada;stroke-width:2;stroke-linecap:butt;stroke-linejoin:miter;stroke-miterlimit:10;stroke-dasharray:none;stroke-opacity:1" d="M 0,0 21.734,14.177"/></g><g transform="translate(288.0238,78.8594)" id="g606"><path id="path608" style="fill:none;stroke:#dadada;stroke-width:2;stroke-linecap:butt;stroke-linejoin:miter;stroke-miterlimit:10;stroke-dasharray:none;stroke-opacity:1" d="M 0,0 -21.562,14.438"/></g><g transform="translate(260.3354,124.25)" id="g610"><path id="path612" style="fill:none;stroke:#dadada;stroke-width:2;stroke-linecap:butt;stroke-linejoin:miter;stroke-miterlimit:10;stroke-dasharray:none;stroke-opacity:1" d="M 0,0 14.438,21.562"/></g><g transform="translate(257.2914,58.3682)" id="g614"><path id="path616" style="fill:none;stroke:#dadada;stroke-width:2;stroke-linecap:butt;stroke-linejoin:miter;stroke-miterlimit:10;stroke-dasharray:none;stroke-opacity:1" d="M 0,0 -5.038,25.456"/></g><g transform="translate(269.809,110.042)" id="g618"><path id="path620" style="fill:none;stroke:#dadada;stroke-width:2;stroke-linecap:butt;stroke-linejoin:miter;stroke-miterlimit:10;stroke-dasharray:none;stroke-opacity:1" d="M 0,0 25.456,5.038"/></g><g transform="translate(90.3187,64.6611)" id="g622"><path id="path624" style="fill:none;stroke:#ffffff;stroke-width:0.5;stroke-linecap:butt;stroke-linejoin:miter;stroke-miterlimit:10;stroke-dasharray:none;stroke-opacity:1" d="M 0,0 -14.517,11.553"/></g><g transform="translate(90.3187,70.4375)" id="g626"><path id="path628" style="fill:none;stroke:#ffffff;stroke-width:0.5;stroke-linecap:butt;stroke-linejoin:miter;stroke-miterlimit:10;stroke-dasharray:none;stroke-opacity:1" d="M 0,0 -14.517,11.553"/></g><g transform="translate(90.3187,76.2139)" id="g630"><path id="path632" style="fill:none;stroke:#ffffff;stroke-width:0.5;stroke-linecap:butt;stroke-linejoin:miter;stroke-miterlimit:10;stroke-dasharray:none;stroke-opacity:1" d="M 0,0 -14.517,11.553"/></g><g transform="translate(90.3187,81.9902)" id="g634"><path id="path636" style="fill:none;stroke:#ffffff;stroke-width:0.5;stroke-linecap:butt;stroke-linejoin:miter;stroke-miterlimit:10;stroke-dasharray:none;stroke-opacity:1" d="M 0,0 -14.517,11.553"/></g><g transform="translate(90.3187,87.7666)" id="g638"><path id="path640" style="fill:none;stroke:#ffffff;stroke-width:0.5;stroke-linecap:butt;stroke-linejoin:miter;stroke-miterlimit:10;stroke-dasharray:none;stroke-opacity:1" d="M 0,0 -14.517,11.553"/></g><g transform="translate(90.3187,93.543)" id="g642"><path id="path644" style="fill:none;stroke:#ffffff;stroke-width:0.5;stroke-linecap:butt;stroke-linejoin:miter;stroke-miterlimit:10;stroke-dasharray:none;stroke-opacity:1" d="M 0,0 -14.517,11.553"/></g><g transform="translate(90.3187,99.3193)" id="g646"><path id="path648" style="fill:none;stroke:#ffffff;stroke-width:0.5;stroke-linecap:butt;stroke-linejoin:miter;stroke-miterlimit:10;stroke-dasharray:none;stroke-opacity:1" d="M 0,0 -14.517,11.553"/></g><g transform="translate(90.3187,105.0957)" id="g650"><path id="path652" style="fill:none;stroke:#ffffff;stroke-width:0.5;stroke-linecap:butt;stroke-linejoin:miter;stroke-miterlimit:10;stroke-dasharray:none;stroke-opacity:1" d="M 0,0 -14.517,11.553"/></g><g transform="translate(90.3187,110.8721)" id="g654"><path id="path656" style="fill:none;stroke:#ffffff;stroke-width:0.5;stroke-linecap:butt;stroke-linejoin:miter;stroke-miterlimit:10;stroke-dasharray:none;stroke-opacity:1" d="M 0,0 -14.517,11.553"/></g><g transform="translate(90.3187,116.6484)" id="g658"><path id="path660" style="fill:none;stroke:#ffffff;stroke-width:0.5;stroke-linecap:butt;stroke-linejoin:miter;stroke-miterlimit:10;stroke-dasharray:none;stroke-opacity:1" d="M 0,0 -14.517,11.553"/></g><g transform="translate(90.3187,122.4248)" id="g662"><path id="path664" style="fill:none;stroke:#ffffff;stroke-width:0.5;stroke-linecap:butt;stroke-linejoin:miter;stroke-miterlimit:10;stroke-dasharray:none;stroke-opacity:1" d="M 0,0 -14.517,11.553"/></g><g transform="translate(90.3187,128.2012)" id="g666"><path id="path668" style="fill:none;stroke:#ffffff;stroke-width:0.5;stroke-linecap:butt;stroke-linejoin:miter;stroke-miterlimit:10;stroke-dasharray:none;stroke-opacity:1" d="M 0,0 -14.517,11.553"/></g><g transform="translate(90.3187,133.9775)" id="g670"><path id="path672" style="fill:none;stroke:#ffffff;stroke-width:0.5;stroke-linecap:butt;stroke-linejoin:miter;stroke-miterlimit:10;stroke-dasharray:none;stroke-opacity:1" d="M 0,0 -14.517,11.553"/></g><g transform="translate(90.3187,139.7539)" id="g674"><path id="path676" style="fill:none;stroke:#ffffff;stroke-width:0.5;stroke-linecap:butt;stroke-linejoin:miter;stroke-miterlimit:10;stroke-dasharray:none;stroke-opacity:1" d="M 0,0 -14.517,11.554"/></g><g transform="translate(90.3187,145.5303)" id="g678"><path id="path680" style="fill:none;stroke:#ffffff;stroke-width:0.5;stroke-linecap:butt;stroke-linejoin:miter;stroke-miterlimit:10;stroke-dasharray:none;stroke-opacity:1" d="M 0,0 -14.517,11.554"/></g><g transform="translate(90.3187,151.3076)" id="g682"><path id="path684" style="fill:none;stroke:#ffffff;stroke-width:0.5;stroke-linecap:butt;stroke-linejoin:miter;stroke-miterlimit:10;stroke-dasharray:none;stroke-opacity:1" d="M 0,0 -14.517,11.553"/></g><g transform="translate(90.3187,157.084)" id="g686"><path id="path688" style="fill:none;stroke:#ffffff;stroke-width:0.5;stroke-linecap:butt;stroke-linejoin:miter;stroke-miterlimit:10;stroke-dasharray:none;stroke-opacity:1" d="M 0,0 -14.517,11.553"/></g><g transform="translate(90.3187,162.8604)" id="g690"><path id="path692" style="fill:none;stroke:#ffffff;stroke-width:0.5;stroke-linecap:butt;stroke-linejoin:miter;stroke-miterlimit:10;stroke-dasharray:none;stroke-opacity:1" d="M 0,0 -14.517,11.553"/></g><g transform="translate(90.3187,168.6367)" id="g694"><path id="path696" style="fill:none;stroke:#ffffff;stroke-width:0.5;stroke-linecap:butt;stroke-linejoin:miter;stroke-miterlimit:10;stroke-dasharray:none;stroke-opacity:1" d="M 0,0 -14.517,11.553"/></g><g transform="translate(171.7142,230.1094)" id="g698"><path id="path700" style="fill:#ffffff;fill-opacity:1;fill-rule:nonzero;stroke:none" d="M 0,0 H -15.755 V 15.756 Z"/></g><g transform="translate(187.4701,230.1094)" id="g702"><path id="path704" style="fill:#ffffff;fill-opacity:1;fill-rule:nonzero;stroke:none" d="M 0,0 H -15.756 V 15.756 Z"/></g><g transform="translate(203.225,230.1094)" id="g706"><path id="path708" style="fill:#ffffff;fill-opacity:1;fill-rule:nonzero;stroke:none" d="M 0,0 H -15.755 V 15.756 Z"/></g><g transform="translate(171.7142,214.3545)" id="g710"><path id="path712" style="fill:#ffffff;fill-opacity:1;fill-rule:nonzero;stroke:none" d="M 0,0 H -15.755 V 15.755 Z"/></g><g transform="translate(187.4701,214.3545)" id="g714"><path id="path716" style="fill:#ffffff;fill-opacity:1;fill-rule:nonzero;stroke:none" d="M 0,0 H -15.756 V 15.755 Z"/></g><g transform="translate(203.225,214.3545)" id="g718"><path id="path720" style="fill:#ffffff;fill-opacity:1;fill-rule:nonzero;stroke:none" d="M 0,0 H -15.755 V 15.755 Z"/></g></g></g><g id="g722"><g clip-path="url(#clipPath728)" id="g724"><g transform="translate(390.3461,310.8901)" id="g730"><path id="path732" style="fill:none;stroke:#ffffff;stroke-width:2;stroke-linecap:butt;stroke-linejoin:miter;stroke-miterlimit:10;stroke-dasharray:none;stroke-opacity:1" d="m 0,0 c 0,-56.499 -45.802,-102.3 -102.301,-102.3 -56.499,0 -102.301,45.801 -102.301,102.3 0,56.499 45.802,102.301 102.301,102.301 C -45.802,102.301 0,56.499 0,0 Z"/></g><g transform="translate(193.1654,310.8901)" id="g734"><path id="path736" style="fill:none;stroke:#ffffff;stroke-width:2;stroke-linecap:butt;stroke-linejoin:miter;stroke-miterlimit:10;stroke-dasharray:none;stroke-opacity:1" d="m 0,0 c 0,52.4 42.479,94.879 94.88,94.879 52.4,0 94.879,-42.479 94.879,-94.879 0,-52.4 -42.479,-94.879 -94.879,-94.879 C 42.479,-94.879 0,-52.4 0,0 Z"/></g><g transform="translate(200.5873,310.8901)" id="g738"><path id="path740" style="fill:none;stroke:#ffffff;stroke-width:2;stroke-linecap:butt;stroke-linejoin:miter;stroke-miterlimit:10;stroke-dasharray:none;stroke-opacity:1" d="m 0,0 c 0,48.302 39.156,87.458 87.458,87.458 48.302,0 87.458,-39.156 87.458,-87.458 0,-48.302 -39.156,-87.458 -87.458,-87.458 C 39.156,-87.458 0,-48.302 0,0 Z"/></g><g transform="translate(208.0082,310.8901)" id="g742"><path id="path744" style="fill:none;stroke:#ffffff;stroke-width:2;stroke-linecap:butt;stroke-linejoin:miter;stroke-miterlimit:10;stroke-dasharray:none;stroke-opacity:1" d="m 0,0 c 0,44.203 35.834,80.037 80.037,80.037 44.203,0 80.037,-35.834 80.037,-80.037 0,-44.203 -35.834,-80.037 -80.037,-80.037 C 35.834,-80.037 0,-44.203 0,0 Z"/></g><g transform="translate(215.4291,310.8901)" id="g746"><path id="path748" style="fill:none;stroke:#ffffff;stroke-width:2;stroke-linecap:butt;stroke-linejoin:miter;stroke-miterlimit:10;stroke-dasharray:none;stroke-opacity:1" d="m 0,0 c 0,40.104 32.512,72.616 72.616,72.616 40.105,0 72.615,-32.512 72.615,-72.616 0,-40.104 -32.51,-72.616 -72.615,-72.616 C 32.512,-72.616 0,-40.104 0,0 Z"/></g><g transform="translate(222.851,310.8901)" id="g750"><path id="path752" style="fill:none;stroke:#ffffff;stroke-width:2;stroke-linecap:butt;stroke-linejoin:miter;stroke-miterlimit:10;stroke-dasharray:none;stroke-opacity:1" d="M 0,0 C 0,36.006 29.188,65.195 65.194,65.195 101.2,65.195 130.389,36.006 130.389,0 130.389,-36.006 101.2,-65.195 65.194,-65.195 29.188,-65.195 0,-36.006 0,0 Z"/></g><g transform="translate(230.2719,310.8901)" id="g754"><path id="path756" style="fill:none;stroke:#ffffff;stroke-width:2;stroke-linecap:butt;stroke-linejoin:miter;stroke-miterlimit:10;stroke-dasharray:none;stroke-opacity:1" d="m 0,0 c 0,31.908 25.866,57.773 57.773,57.773 31.908,0 57.774,-25.865 57.774,-57.773 0,-31.907 -25.866,-57.773 -57.774,-57.773 C 25.866,-57.773 0,-31.907 0,0 Z"/></g><g transform="translate(237.6928,310.8901)" id="g758"><path id="path760" style="fill:none;stroke:#ffffff;stroke-width:2;stroke-linecap:butt;stroke-linejoin:miter;stroke-miterlimit:10;stroke-dasharray:none;stroke-opacity:1" d="m 0,0 c 0,27.809 22.544,50.353 50.353,50.353 27.808,0 50.352,-22.544 50.352,-50.353 0,-27.809 -22.544,-50.352 -50.352,-50.352 C 22.544,-50.352 0,-27.809 0,0 Z"/></g><g transform="translate(245.1137,310.8901)" id="g762"><path id="path764" style="fill:none;stroke:#ffffff;stroke-width:2;stroke-linecap:butt;stroke-linejoin:miter;stroke-miterlimit:10;stroke-dasharray:none;stroke-opacity:1" d="m 0,0 c 0,23.71 19.222,42.931 42.932,42.931 23.71,0 42.93,-19.221 42.93,-42.931 0,-23.71 -19.22,-42.931 -42.93,-42.931 C 19.222,-42.931 0,-23.71 0,0 Z"/></g><g transform="translate(252.5355,310.8901)" id="g766"><path id="path768" style="fill:none;stroke:#ffffff;stroke-width:2;stroke-linecap:butt;stroke-linejoin:miter;stroke-miterlimit:10;stroke-dasharray:none;stroke-opacity:1" d="M 0,0 C 0,19.612 15.898,35.51 35.51,35.51 55.121,35.51 71.02,19.612 71.02,0 71.02,-19.611 55.121,-35.51 35.51,-35.51 15.898,-35.51 0,-19.611 0,0 Z"/></g><g transform="translate(259.9565,310.8901)" id="g770"><path id="path772" style="fill:none;stroke:#ffffff;stroke-width:2;stroke-linecap:butt;stroke-linejoin:miter;stroke-miterlimit:10;stroke-dasharray:none;stroke-opacity:1" d="M 0,0 C 0,15.513 12.576,28.089 28.089,28.089 43.602,28.089 56.178,15.513 56.178,0 56.178,-15.513 43.602,-28.088 28.089,-28.088 12.576,-28.088 0,-15.513 0,0 Z"/></g><g transform="translate(308.7123,310.8901)" id="g774"><path id="path776" style="fill:none;stroke:#ffffff;stroke-width:2;stroke-linecap:butt;stroke-linejoin:miter;stroke-miterlimit:10;stroke-dasharray:none;stroke-opacity:1" d="m 0,0 c 0,-11.414 -9.253,-20.667 -20.667,-20.667 -11.414,0 -20.668,9.253 -20.668,20.667 0,11.415 9.254,20.667 20.668,20.667 C -9.253,20.667 0,11.415 0,0 Z"/></g><g transform="translate(309.4252,310.8901)" id="g778"><path id="path780" style="fill:#ffffff;fill-opacity:1;fill-rule:nonzero;stroke:none" d="m 0,0 c 0,-11.808 -9.572,-21.38 -21.38,-21.38 -11.808,0 -21.38,9.572 -21.38,21.38 0,11.808 9.572,21.38 21.38,21.38 C -9.572,21.38 0,11.808 0,0"/></g><g transform="translate(310.1371,310.8901)" id="g782"><path id="path784" style="fill:#ffffff;fill-opacity:1;fill-rule:nonzero;stroke:none" d="m 0,0 c 0,-12.201 -9.891,-22.092 -22.092,-22.092 -12.201,0 -22.093,9.891 -22.093,22.092 0,12.202 9.892,22.093 22.093,22.093 C -9.891,22.093 0,12.202 0,0"/></g><g transform="translate(310.85,310.8901)" id="g786"><path id="path788" style="fill:#ffffff;fill-opacity:1;fill-rule:nonzero;stroke:none" d="m 0,0 c 0,-12.595 -10.21,-22.805 -22.805,-22.805 -12.594,0 -22.804,10.21 -22.804,22.805 0,12.595 10.21,22.805 22.804,22.805 C -10.21,22.805 0,12.595 0,0"/></g><g transform="translate(311.5629,310.8901)" id="g790"><path id="path792" style="fill:#ffffff;fill-opacity:1;fill-rule:nonzero;stroke:none" d="m 0,0 c 0,-12.988 -10.529,-23.517 -23.518,-23.517 -12.988,0 -23.517,10.529 -23.517,23.517 0,12.988 10.529,23.518 23.517,23.518 C -10.529,23.518 0,12.988 0,0"/></g><g transform="translate(312.2748,310.8901)" id="g794"><path id="path796" style="fill:#ffffff;fill-opacity:1;fill-rule:nonzero;stroke:none" d="m 0,0 c 0,-13.382 -10.848,-24.229 -24.229,-24.229 -13.382,0 -24.231,10.847 -24.231,24.229 0,13.382 10.849,24.23 24.231,24.23 C -10.848,24.23 0,13.382 0,0"/></g><g transform="translate(312.9877,310.8901)" id="g798"><path id="path800" style="fill:#ffffff;fill-opacity:1;fill-rule:nonzero;stroke:none" d="m 0,0 c 0,-13.775 -11.167,-24.942 -24.942,-24.942 -13.776,0 -24.943,11.167 -24.943,24.942 0,13.775 11.167,24.942 24.943,24.942 C -11.167,24.942 0,13.775 0,0"/></g><g transform="translate(313.6996,310.8901)" id="g802"><path id="path804" style="fill:#ffffff;fill-opacity:1;fill-rule:nonzero;stroke:none" d="m 0,0 c 0,-14.168 -11.485,-25.655 -25.654,-25.655 -14.169,0 -25.656,11.487 -25.656,25.655 0,14.169 11.487,25.655 25.656,25.655 C -11.485,25.655 0,14.169 0,0"/></g><g transform="translate(314.4125,310.8901)" id="g806"><path id="path808" style="fill:#ffffff;fill-opacity:1;fill-rule:nonzero;stroke:none" d="m 0,0 c 0,-14.562 -11.805,-26.367 -26.367,-26.367 -14.563,0 -26.367,11.805 -26.367,26.367 0,14.563 11.804,26.367 26.367,26.367 C -11.805,26.367 0,14.563 0,0"/></g><g transform="translate(315.1244,310.8901)" id="g810"><path id="path812" style="fill:#ffffff;fill-opacity:1;fill-rule:nonzero;stroke:none" d="m 0,0 c 0,-14.956 -12.124,-27.08 -27.079,-27.08 -14.956,0 -27.08,12.124 -27.08,27.08 0,14.956 12.124,27.08 27.08,27.08 C -12.124,27.08 0,14.956 0,0"/></g><g transform="translate(315.8373,310.8901)" id="g814"><path id="path816" style="fill:#ffffff;fill-opacity:1;fill-rule:nonzero;stroke:none" d="m 0,0 c 0,-15.349 -12.443,-27.792 -27.792,-27.792 -15.35,0 -27.792,12.443 -27.792,27.792 0,15.349 12.442,27.792 27.792,27.792 C -12.443,27.792 0,15.349 0,0"/></g><g transform="translate(316.5502,310.8901)" id="g818"><path id="path820" style="fill:#ffffff;fill-opacity:1;fill-rule:nonzero;stroke:none" d="m 0,0 c 0,-15.743 -12.763,-28.504 -28.505,-28.504 -15.743,0 -28.505,12.761 -28.505,28.504 0,15.743 12.762,28.505 28.505,28.505 C -12.763,28.505 0,15.743 0,0"/></g></g></g><g id="g822"><g clip-path="url(#clipPath828)" id="g824"><path id="path830" style="fill:#00ff90;fill-opacity:1;fill-rule:nonzero;stroke:none" d="m 85.346,235.125 h -7.647 v 22.981 h 7.647 z"/><path id="path832" style="fill:#00ff90;fill-opacity:1;fill-rule:nonzero;stroke:none" d="m 70.033,250.439 h 22.98 v -7.647 h -22.98 z"/><path id="path834" style="fill:#00ff90;fill-opacity:1;fill-rule:nonzero;stroke:none" d="m 85.346,267.405 h -7.647 v 22.98 h 7.647 z"/><path id="path836" style="fill:#00ff90;fill-opacity:1;fill-rule:nonzero;stroke:none" d="m 70.033,282.719 h 22.98 v -7.647 h -22.98 z"/><g transform="translate(565.2347,141.3623)" id="g838"><path id="path840" style="fill:none;stroke:#00ff90;stroke-width:2;stroke-linecap:butt;stroke-linejoin:miter;stroke-miterlimit:10;stroke-dasharray:none;stroke-opacity:1" d="m 0,0 c 23.63,-38.485 30.202,-77.41 14.68,-86.94 -15.523,-9.532 -47.262,13.941 -70.892,52.426 -23.63,38.486 -30.202,77.41 -14.68,86.941 C -55.369,61.957 -23.63,38.485 0,0 Z"/></g><g transform="translate(538.7113,127.7588)" id="g842"><path id="path844" style="fill:none;stroke:#00ff90;stroke-width:2;stroke-linecap:butt;stroke-linejoin:miter;stroke-miterlimit:10;stroke-dasharray:none;stroke-opacity:1" d="M 0,0 98.271,98.272"/></g><g transform="translate(461.266,50.3145)" id="g846"><path id="path848" style="fill:none;stroke:#00ff90;stroke-width:2;stroke-linecap:butt;stroke-linejoin:miter;stroke-miterlimit:10;stroke-dasharray:none;stroke-opacity:1" d="M 0,0 51.464,51.463"/></g><g transform="translate(416.015,437.2515)" id="g850"><path id="path852" style="fill:#00ff90;fill-opacity:1;fill-rule:nonzero;stroke:none" d="m 0,0 c 0,-0.643 -0.521,-1.164 -1.165,-1.164 -0.643,0 -1.164,0.521 -1.164,1.164 0,0.644 0.521,1.165 1.164,1.165 C -0.521,1.165 0,0.644 0,0"/></g><g transform="translate(416.015,426.7715)" id="g854"><path id="path856" style="fill:#00ff90;fill-opacity:1;fill-rule:nonzero;stroke:none" d="m 0,0 c 0,-0.643 -0.521,-1.165 -1.165,-1.165 -0.643,0 -1.164,0.522 -1.164,1.165 0,0.643 0.521,1.165 1.164,1.165 C -0.521,1.165 0,0.643 0,0"/></g><g transform="translate(416.015,416.2915)" id="g858"><path id="path860" style="fill:#00ff90;fill-opacity:1;fill-rule:nonzero;stroke:none" d="m 0,0 c 0,-0.643 -0.521,-1.165 -1.165,-1.165 -0.643,0 -1.164,0.522 -1.164,1.165 0,0.643 0.521,1.165 1.164,1.165 C -0.521,1.165 0,0.643 0,0"/></g><g transform="translate(416.015,405.811)" id="g862"><path id="path864" style="fill:#00ff90;fill-opacity:1;fill-rule:nonzero;stroke:none" d="m 0,0 c 0,-0.643 -0.521,-1.164 -1.165,-1.164 -0.643,0 -1.164,0.521 -1.164,1.164 0,0.643 0.521,1.165 1.164,1.165 C -0.521,1.165 0,0.643 0,0"/></g><g transform="translate(416.015,395.3311)" id="g866"><path id="path868" style="fill:#00ff90;fill-opacity:1;fill-rule:nonzero;stroke:none" d="m 0,0 c 0,-0.643 -0.521,-1.165 -1.165,-1.165 -0.643,0 -1.164,0.522 -1.164,1.165 0,0.643 0.521,1.165 1.164,1.165 C -0.521,1.165 0,0.643 0,0"/></g><g transform="translate(428.0473,437.2515)" id="g870"><path id="path872" style="fill:#00ff90;fill-opacity:1;fill-rule:nonzero;stroke:none" d="m 0,0 c 0,-0.643 -0.521,-1.164 -1.164,-1.164 -0.644,0 -1.164,0.521 -1.164,1.164 0,0.644 0.52,1.165 1.164,1.165 C -0.521,1.165 0,0.644 0,0"/></g><g transform="translate(428.0473,426.7715)" id="g874"><path id="path876" style="fill:#00ff90;fill-opacity:1;fill-rule:nonzero;stroke:none" d="m 0,0 c 0,-0.643 -0.521,-1.165 -1.164,-1.165 -0.644,0 -1.164,0.522 -1.164,1.165 0,0.643 0.52,1.165 1.164,1.165 C -0.521,1.165 0,0.643 0,0"/></g><g transform="translate(428.0473,416.2915)" id="g878"><path id="path880" style="fill:#00ff90;fill-opacity:1;fill-rule:nonzero;stroke:none" d="m 0,0 c 0,-0.643 -0.521,-1.165 -1.164,-1.165 -0.644,0 -1.164,0.522 -1.164,1.165 0,0.643 0.52,1.165 1.164,1.165 C -0.521,1.165 0,0.643 0,0"/></g><g transform="translate(428.0473,405.811)" id="g882"><path id="path884" style="fill:#00ff90;fill-opacity:1;fill-rule:nonzero;stroke:none" d="m 0,0 c 0,-0.643 -0.521,-1.164 -1.164,-1.164 -0.644,0 -1.164,0.521 -1.164,1.164 0,0.643 0.52,1.165 1.164,1.165 C -0.521,1.165 0,0.643 0,0"/></g><g transform="translate(428.0473,395.3311)" id="g886"><path id="path888" style="fill:#00ff90;fill-opacity:1;fill-rule:nonzero;stroke:none" d="m 0,0 c 0,-0.643 -0.521,-1.165 -1.164,-1.165 -0.644,0 -1.164,0.522 -1.164,1.165 0,0.643 0.52,1.165 1.164,1.165 C -0.521,1.165 0,0.643 0,0"/></g><g transform="translate(440.0805,437.2515)" id="g890"><path id="path892" style="fill:#00ff90;fill-opacity:1;fill-rule:nonzero;stroke:none" d="m 0,0 c 0,-0.643 -0.521,-1.164 -1.165,-1.164 -0.643,0 -1.164,0.521 -1.164,1.164 0,0.644 0.521,1.165 1.164,1.165 C -0.521,1.165 0,0.644 0,0"/></g><g transform="translate(440.0805,426.7715)" id="g894"><path id="path896" style="fill:#00ff90;fill-opacity:1;fill-rule:nonzero;stroke:none" d="m 0,0 c 0,-0.643 -0.521,-1.165 -1.165,-1.165 -0.643,0 -1.164,0.522 -1.164,1.165 0,0.643 0.521,1.165 1.164,1.165 C -0.521,1.165 0,0.643 0,0"/></g><g transform="translate(440.0805,416.2915)" id="g898"><path id="path900" style="fill:#00ff90;fill-opacity:1;fill-rule:nonzero;stroke:none" d="m 0,0 c 0,-0.643 -0.521,-1.165 -1.165,-1.165 -0.643,0 -1.164,0.522 -1.164,1.165 0,0.643 0.521,1.165 1.164,1.165 C -0.521,1.165 0,0.643 0,0"/></g><g transform="translate(440.0805,405.811)" id="g902"><path id="path904" style="fill:#00ff90;fill-opacity:1;fill-rule:nonzero;stroke:none" d="m 0,0 c 0,-0.643 -0.521,-1.164 -1.165,-1.164 -0.643,0 -1.164,0.521 -1.164,1.164 0,0.643 0.521,1.165 1.164,1.165 C -0.521,1.165 0,0.643 0,0"/></g><g transform="translate(440.0805,395.3311)" id="g906"><path id="path908" style="fill:#00ff90;fill-opacity:1;fill-rule:nonzero;stroke:none" d="m 0,0 c 0,-0.643 -0.521,-1.165 -1.165,-1.165 -0.643,0 -1.164,0.522 -1.164,1.165 0,0.643 0.521,1.165 1.164,1.165 C -0.521,1.165 0,0.643 0,0"/></g><g transform="translate(452.1127,437.2515)" id="g910"><path id="path912" style="fill:#00ff90;fill-opacity:1;fill-rule:nonzero;stroke:none" d="m 0,0 c 0,-0.643 -0.521,-1.164 -1.164,-1.164 -0.644,0 -1.164,0.521 -1.164,1.164 0,0.644 0.52,1.165 1.164,1.165 C -0.521,1.165 0,0.644 0,0"/></g><g transform="translate(452.1127,426.7715)" id="g914"><path id="path916" style="fill:#00ff90;fill-opacity:1;fill-rule:nonzero;stroke:none" d="m 0,0 c 0,-0.643 -0.521,-1.165 -1.164,-1.165 -0.644,0 -1.164,0.522 -1.164,1.165 0,0.643 0.52,1.165 1.164,1.165 C -0.521,1.165 0,0.643 0,0"/></g><g transform="translate(452.1127,416.2915)" id="g918"><path id="path920" style="fill:#00ff90;fill-opacity:1;fill-rule:nonzero;stroke:none" d="m 0,0 c 0,-0.643 -0.521,-1.165 -1.164,-1.165 -0.644,0 -1.164,0.522 -1.164,1.165 0,0.643 0.52,1.165 1.164,1.165 C -0.521,1.165 0,0.643 0,0"/></g><g transform="translate(452.1127,405.811)" id="g922"><path id="path924" style="fill:#00ff90;fill-opacity:1;fill-rule:nonzero;stroke:none" d="m 0,0 c 0,-0.643 -0.521,-1.164 -1.164,-1.164 -0.644,0 -1.164,0.521 -1.164,1.164 0,0.643 0.52,1.165 1.164,1.165 C -0.521,1.165 0,0.643 0,0"/></g><g transform="translate(452.1127,395.3311)" id="g926"><path id="path928" style="fill:#00ff90;fill-opacity:1;fill-rule:nonzero;stroke:none" d="m 0,0 c 0,-0.643 -0.521,-1.165 -1.164,-1.165 -0.644,0 -1.164,0.522 -1.164,1.165 0,0.643 0.52,1.165 1.164,1.165 C -0.521,1.165 0,0.643 0,0"/></g><g transform="translate(464.1459,437.2515)" id="g930"><path id="path932" style="fill:#00ff90;fill-opacity:1;fill-rule:nonzero;stroke:none" d="m 0,0 c 0,-0.643 -0.521,-1.164 -1.164,-1.164 -0.644,0 -1.165,0.521 -1.165,1.164 0,0.644 0.521,1.165 1.165,1.165 C -0.521,1.165 0,0.644 0,0"/></g><g transform="translate(464.1459,426.7715)" id="g934"><path id="path936" style="fill:#00ff90;fill-opacity:1;fill-rule:nonzero;stroke:none" d="m 0,0 c 0,-0.643 -0.521,-1.165 -1.164,-1.165 -0.644,0 -1.165,0.522 -1.165,1.165 0,0.643 0.521,1.165 1.165,1.165 C -0.521,1.165 0,0.643 0,0"/></g><g transform="translate(464.1459,416.2915)" id="g938"><path id="path940" style="fill:#00ff90;fill-opacity:1;fill-rule:nonzero;stroke:none" d="m 0,0 c 0,-0.643 -0.521,-1.165 -1.164,-1.165 -0.644,0 -1.165,0.522 -1.165,1.165 0,0.643 0.521,1.165 1.165,1.165 C -0.521,1.165 0,0.643 0,0"/></g><g transform="translate(464.1459,405.811)" id="g942"><path id="path944" style="fill:#00ff90;fill-opacity:1;fill-rule:nonzero;stroke:none" d="m 0,0 c 0,-0.643 -0.521,-1.164 -1.164,-1.164 -0.644,0 -1.165,0.521 -1.165,1.164 0,0.643 0.521,1.165 1.165,1.165 C -0.521,1.165 0,0.643 0,0"/></g><g transform="translate(464.1459,395.3311)" id="g946"><path id="path948" style="fill:#00ff90;fill-opacity:1;fill-rule:nonzero;stroke:none" d="m 0,0 c 0,-0.643 -0.521,-1.165 -1.164,-1.165 -0.644,0 -1.165,0.522 -1.165,1.165 0,0.643 0.521,1.165 1.165,1.165 C -0.521,1.165 0,0.643 0,0"/></g><g transform="translate(476.1791,437.2515)" id="g950"><path id="path952" style="fill:#00ff90;fill-opacity:1;fill-rule:nonzero;stroke:none" d="m 0,0 c 0,-0.643 -0.521,-1.164 -1.165,-1.164 -0.643,0 -1.164,0.521 -1.164,1.164 0,0.644 0.521,1.165 1.164,1.165 C -0.521,1.165 0,0.644 0,0"/></g><g transform="translate(476.1791,426.7715)" id="g954"><path id="path956" style="fill:#00ff90;fill-opacity:1;fill-rule:nonzero;stroke:none" d="m 0,0 c 0,-0.643 -0.521,-1.165 -1.165,-1.165 -0.643,0 -1.164,0.522 -1.164,1.165 0,0.643 0.521,1.165 1.164,1.165 C -0.521,1.165 0,0.643 0,0"/></g><g transform="translate(476.1791,416.2915)" id="g958"><path id="path960" style="fill:#00ff90;fill-opacity:1;fill-rule:nonzero;stroke:none" d="m 0,0 c 0,-0.643 -0.521,-1.165 -1.165,-1.165 -0.643,0 -1.164,0.522 -1.164,1.165 0,0.643 0.521,1.165 1.164,1.165 C -0.521,1.165 0,0.643 0,0"/></g><g transform="translate(476.1791,405.811)" id="g962"><path id="path964" style="fill:#00ff90;fill-opacity:1;fill-rule:nonzero;stroke:none" d="m 0,0 c 0,-0.643 -0.521,-1.164 -1.165,-1.164 -0.643,0 -1.164,0.521 -1.164,1.164 0,0.643 0.521,1.165 1.164,1.165 C -0.521,1.165 0,0.643 0,0"/></g><g transform="translate(476.1791,395.3311)" id="g966"><path id="path968" style="fill:#00ff90;fill-opacity:1;fill-rule:nonzero;stroke:none" d="m 0,0 c 0,-0.643 -0.521,-1.165 -1.165,-1.165 -0.643,0 -1.164,0.522 -1.164,1.165 0,0.643 0.521,1.165 1.164,1.165 C -0.521,1.165 0,0.643 0,0"/></g><g transform="translate(488.2113,437.2515)" id="g970"><path id="path972" style="fill:#00ff90;fill-opacity:1;fill-rule:nonzero;stroke:none" d="m 0,0 c 0,-0.643 -0.521,-1.164 -1.164,-1.164 -0.644,0 -1.165,0.521 -1.165,1.164 0,0.644 0.521,1.165 1.165,1.165 C -0.521,1.165 0,0.644 0,0"/></g><g transform="translate(488.2113,426.7715)" id="g974"><path id="path976" style="fill:#00ff90;fill-opacity:1;fill-rule:nonzero;stroke:none" d="m 0,0 c 0,-0.643 -0.521,-1.165 -1.164,-1.165 -0.644,0 -1.165,0.522 -1.165,1.165 0,0.643 0.521,1.165 1.165,1.165 C -0.521,1.165 0,0.643 0,0"/></g><g transform="translate(488.2113,416.2915)" id="g978"><path id="path980" style="fill:#00ff90;fill-opacity:1;fill-rule:nonzero;stroke:none" d="m 0,0 c 0,-0.643 -0.521,-1.165 -1.164,-1.165 -0.644,0 -1.165,0.522 -1.165,1.165 0,0.643 0.521,1.165 1.165,1.165 C -0.521,1.165 0,0.643 0,0"/></g><g transform="translate(488.2113,405.811)" id="g982"><path id="path984" style="fill:#00ff90;fill-opacity:1;fill-rule:nonzero;stroke:none" d="m 0,0 c 0,-0.643 -0.521,-1.164 -1.164,-1.164 -0.644,0 -1.165,0.521 -1.165,1.164 0,0.643 0.521,1.165 1.165,1.165 C -0.521,1.165 0,0.643 0,0"/></g><g transform="translate(488.2113,395.3311)" id="g986"><path id="path988" style="fill:#00ff90;fill-opacity:1;fill-rule:nonzero;stroke:none" d="m 0,0 c 0,-0.643 -0.521,-1.165 -1.164,-1.165 -0.644,0 -1.165,0.522 -1.165,1.165 0,0.643 0.521,1.165 1.165,1.165 C -0.521,1.165 0,0.643 0,0"/></g><g transform="translate(500.2445,437.2515)" id="g990"><path id="path992" style="fill:#00ff90;fill-opacity:1;fill-rule:nonzero;stroke:none" d="m 0,0 c 0,-0.643 -0.521,-1.164 -1.165,-1.164 -0.643,0 -1.164,0.521 -1.164,1.164 0,0.644 0.521,1.165 1.164,1.165 C -0.521,1.165 0,0.644 0,0"/></g><g transform="translate(500.2445,426.7715)" id="g994"><path id="path996" style="fill:#00ff90;fill-opacity:1;fill-rule:nonzero;stroke:none" d="m 0,0 c 0,-0.643 -0.521,-1.165 -1.165,-1.165 -0.643,0 -1.164,0.522 -1.164,1.165 0,0.643 0.521,1.165 1.164,1.165 C -0.521,1.165 0,0.643 0,0"/></g><g transform="translate(500.2445,416.2915)" id="g998"><path id="path1000" style="fill:#00ff90;fill-opacity:1;fill-rule:nonzero;stroke:none" d="m 0,0 c 0,-0.643 -0.521,-1.165 -1.165,-1.165 -0.643,0 -1.164,0.522 -1.164,1.165 0,0.643 0.521,1.165 1.164,1.165 C -0.521,1.165 0,0.643 0,0"/></g><g transform="translate(500.2445,405.811)" id="g1002"><path id="path1004" style="fill:#00ff90;fill-opacity:1;fill-rule:nonzero;stroke:none" d="m 0,0 c 0,-0.643 -0.521,-1.164 -1.165,-1.164 -0.643,0 -1.164,0.521 -1.164,1.164 0,0.643 0.521,1.165 1.164,1.165 C -0.521,1.165 0,0.643 0,0"/></g><g transform="translate(500.2445,395.3311)" id="g1006"><path id="path1008" style="fill:#00ff90;fill-opacity:1;fill-rule:nonzero;stroke:none" d="m 0,0 c 0,-0.643 -0.521,-1.165 -1.165,-1.165 -0.643,0 -1.164,0.522 -1.164,1.165 0,0.643 0.521,1.165 1.164,1.165 C -0.521,1.165 0,0.643 0,0"/></g><g transform="translate(512.2767,437.2515)" id="g1010"><path id="path1012" style="fill:#00ff90;fill-opacity:1;fill-rule:nonzero;stroke:none" d="m 0,0 c 0,-0.643 -0.521,-1.164 -1.164,-1.164 -0.644,0 -1.165,0.521 -1.165,1.164 0,0.644 0.521,1.165 1.165,1.165 C -0.521,1.165 0,0.644 0,0"/></g><g transform="translate(512.2767,426.7715)" id="g1014"><path id="path1016" style="fill:#00ff90;fill-opacity:1;fill-rule:nonzero;stroke:none" d="m 0,0 c 0,-0.643 -0.521,-1.165 -1.164,-1.165 -0.644,0 -1.165,0.522 -1.165,1.165 0,0.643 0.521,1.165 1.165,1.165 C -0.521,1.165 0,0.643 0,0"/></g><g transform="translate(512.2767,416.2915)" id="g1018"><path id="path1020" style="fill:#00ff90;fill-opacity:1;fill-rule:nonzero;stroke:none" d="m 0,0 c 0,-0.643 -0.521,-1.165 -1.164,-1.165 -0.644,0 -1.165,0.522 -1.165,1.165 0,0.643 0.521,1.165 1.165,1.165 C -0.521,1.165 0,0.643 0,0"/></g><g transform="translate(512.2767,405.811)" id="g1022"><path id="path1024" style="fill:#00ff90;fill-opacity:1;fill-rule:nonzero;stroke:none" d="m 0,0 c 0,-0.643 -0.521,-1.164 -1.164,-1.164 -0.644,0 -1.165,0.521 -1.165,1.164 0,0.643 0.521,1.165 1.165,1.165 C -0.521,1.165 0,0.643 0,0"/></g><g transform="translate(512.2767,395.3311)" id="g1026"><path id="path1028" style="fill:#00ff90;fill-opacity:1;fill-rule:nonzero;stroke:none" d="m 0,0 c 0,-0.643 -0.521,-1.165 -1.164,-1.165 -0.644,0 -1.165,0.522 -1.165,1.165 0,0.643 0.521,1.165 1.165,1.165 C -0.521,1.165 0,0.643 0,0"/></g><g transform="translate(524.3099,437.2515)" id="g1030"><path id="path1032" style="fill:#00ff90;fill-opacity:1;fill-rule:nonzero;stroke:none" d="m 0,0 c 0,-0.643 -0.521,-1.164 -1.165,-1.164 -0.643,0 -1.164,0.521 -1.164,1.164 0,0.644 0.521,1.165 1.164,1.165 C -0.521,1.165 0,0.644 0,0"/></g><g transform="translate(524.3099,426.7715)" id="g1034"><path id="path1036" style="fill:#00ff90;fill-opacity:1;fill-rule:nonzero;stroke:none" d="m 0,0 c 0,-0.643 -0.521,-1.165 -1.165,-1.165 -0.643,0 -1.164,0.522 -1.164,1.165 0,0.643 0.521,1.165 1.164,1.165 C -0.521,1.165 0,0.643 0,0"/></g><g transform="translate(524.3099,416.2915)" id="g1038"><path id="path1040" style="fill:#00ff90;fill-opacity:1;fill-rule:nonzero;stroke:none" d="m 0,0 c 0,-0.643 -0.521,-1.165 -1.165,-1.165 -0.643,0 -1.164,0.522 -1.164,1.165 0,0.643 0.521,1.165 1.164,1.165 C -0.521,1.165 0,0.643 0,0"/></g><g transform="translate(524.3099,405.811)" id="g1042"><path id="path1044" style="fill:#00ff90;fill-opacity:1;fill-rule:nonzero;stroke:none" d="m 0,0 c 0,-0.643 -0.521,-1.164 -1.165,-1.164 -0.643,0 -1.164,0.521 -1.164,1.164 0,0.643 0.521,1.165 1.164,1.165 C -0.521,1.165 0,0.643 0,0"/></g><g transform="translate(524.3099,395.3311)" id="g1046"><path id="path1048" style="fill:#00ff90;fill-opacity:1;fill-rule:nonzero;stroke:none" d="m 0,0 c 0,-0.643 -0.521,-1.165 -1.165,-1.165 -0.643,0 -1.164,0.522 -1.164,1.165 0,0.643 0.521,1.165 1.164,1.165 C -0.521,1.165 0,0.643 0,0"/></g><g transform="translate(622.392,434.5654)" id="g1050"><path id="path1052" style="fill:none;stroke:#ffffff;stroke-width:3;stroke-linecap:butt;stroke-linejoin:miter;stroke-miterlimit:10;stroke-dasharray:none;stroke-opacity:1" d="m 0,0 -3.305,-5.285 c -2.022,-3.235 -2.023,-7.339 -10e-4,-10.573 l 10e-4,-0.002 c 2.022,-3.235 2.022,-7.339 -10e-4,-10.573 -2.022,-3.234 -2.022,-7.338 -0.002,-10.572 l 0.005,-0.008 c 2.021,-3.234 2.021,-7.336 0,-10.57 l -3.307,-5.294"/></g><g transform="translate(640.0297,434.5654)" id="g1054"><path id="path1056" style="fill:none;stroke:#ffffff;stroke-width:3;stroke-linecap:butt;stroke-linejoin:miter;stroke-miterlimit:10;stroke-dasharray:none;stroke-opacity:1" d="m 0,0 -3.305,-5.285 c -2.022,-3.235 -2.022,-7.339 -10e-4,-10.573 l 10e-4,-0.002 c 2.023,-3.235 2.022,-7.339 0,-10.573 -2.022,-3.234 -2.023,-7.338 -0.002,-10.572 l 0.005,-0.008 c 2.021,-3.234 2.021,-7.336 0,-10.57 l -3.308,-5.294"/></g><g transform="translate(154.3793,136.875)" id="g1058"><path id="path1060" style="fill:none;stroke:#00ff90;stroke-width:0.75;stroke-linecap:butt;stroke-linejoin:miter;stroke-miterlimit:10;stroke-dasharray:none;stroke-opacity:1" d="m 0,0 v 0 c -3.362,3.361 -3.362,8.813 0,12.175 l 78.538,78.538 c 3.362,3.362 8.814,3.362 12.175,0 3.362,-3.361 3.362,-8.813 0,-12.175 L 12.175,0 C 8.813,-3.362 3.361,-3.362 0,0 Z"/></g><g transform="translate(117.0316,458.4365)" id="g1062"><path id="path1064" style="fill:none;stroke:#ffffff;stroke-width:0.25;stroke-linecap:butt;stroke-linejoin:miter;stroke-miterlimit:10;stroke-dasharray:none;stroke-opacity:1" d="M 0,0 V -135.877"/></g><g transform="translate(87.2523,430.6069)" id="g1066"><path id="path1068" style="fill:none;stroke:#ffffff;stroke-width:0.25;stroke-linecap:butt;stroke-linejoin:miter;stroke-miterlimit:10;stroke-dasharray:none;stroke-opacity:1" d="M 0,0 H 208.931"/></g></g></g></g></svg>